  0
SECTION
  2
HEADER
  9
$ACADVER
  1
AC1009
  9
$FILLMODE
 70
 0
  9
$SPLFRAME
 70
 1
  9
$EXTMIN
 10
0
 20
0
 30
0.0
  9
$EXTMAX
 10
1058.33
 20
1058.33
 30
0.0
  0
ENDSEC
  0
SECTION
  2
TABLES
  0
TABLE
  2
LAYER
 70
1
  0
LAYER
  2
0
 70
     0
 62
     7
  6
CONTINUOUS
  0
ENDTAB
  0
ENDSEC
  0
SECTION
  2
ENTITIES
  0
LINE
  8
0
 62
     0
 10
0.0950846
 20
157.596
 30
0.0
 11
362.045
 21
157.596
 31
0.0
  0
LINE
  8
0
 62
     0
 10
362.045
 20
157.596
 30
0.0
 11
362.045
 21
0.434082
 31
0.0
  0
LINE
  8
0
 62
     0
 10
362.045
 20
0.434082
 30
0.0
 11
0.0950846
 21
0.434082
 31
0.0
  0
LINE
  8
0
 62
     0
 10
0.0950846
 20
0.434082
 30
0.0
 11
0.0950846
 21
157.596
 31
0.0
  0
LINE
  8
0
 62
     0
 10
135.97
 20
16.9595
 30
0.0
 11
135.97
 21
12.2604
 31
0.0
  0
LINE
  8
0
 62
     0
 10
135.97
 20
12.2604
 30
0.0
 11
79.6699
 21
12.2604
 31
0.0
  0
LINE
  8
0
 62
     0
 10
79.6699
 20
12.2604
 30
0.0
 11
79.6699
 21
15.4905
 31
0.0
  0
LINE
  8
0
 62
     0
 10
79.6699
 20
15.4905
 30
0.0
 11
72.9188
 21
15.4905
 31
0.0
  0
LINE
  8
0
 62
     0
 10
72.9188
 20
15.4905
 30
0.0
 11
72.9188
 21
12.2604
 31
0.0
  0
LINE
  8
0
 62
     0
 10
72.9188
 20
12.2604
 30
0.0
 11
72.0947
 21
12.2604
 31
0.0
  0
LINE
  8
0
 62
     0
 10
72.0947
 20
12.2604
 30
0.0
 11
72.0947
 21
9.46023
 31
0.0
  0
LINE
  8
0
 62
     0
 10
72.0947
 20
9.46023
 30
0.0
 11
72.9188
 21
9.46023
 31
0.0
  0
LINE
  8
0
 62
     0
 10
72.9188
 20
9.46023
 30
0.0
 11
72.9188
 21
3.19016
 31
0.0
  0
LINE
  8
0
 62
     0
 10
72.9188
 20
3.19016
 30
0.0
 11
74.6442
 21
3.19016
 31
0.0
  0
LINE
  8
0
 62
     0
 10
74.6442
 20
3.19016
 30
0.0
 11
74.6442
 21
1.98989
 31
0.0
  0
LINE
  8
0
 62
     0
 10
74.6442
 20
1.98989
 30
0.0
 11
77.9445
 21
1.98989
 31
0.0
  0
LINE
  8
0
 62
     0
 10
77.9445
 20
1.98989
 30
0.0
 11
77.9445
 21
3.19016
 31
0.0
  0
LINE
  8
0
 62
     0
 10
77.9445
 20
3.19016
 30
0.0
 11
79.6699
 21
3.19016
 31
0.0
  0
LINE
  8
0
 62
     0
 10
79.6699
 20
3.19016
 30
0.0
 11
79.6699
 21
7.6605
 31
0.0
  0
LINE
  8
0
 62
     0
 10
79.6699
 20
7.6605
 30
0.0
 11
135.97
 21
7.6605
 31
0.0
  0
LINE
  8
0
 62
     0
 10
135.97
 20
7.6605
 30
0.0
 11
135.97
 21
2.96003
 31
0.0
  0
LINE
  8
0
 62
     0
 10
135.97
 20
2.96003
 30
0.0
 11
149.969
 21
2.96003
 31
0.0
  0
LINE
  8
0
 62
     0
 10
149.969
 20
2.96003
 30
0.0
 11
149.969
 21
7.6605
 31
0.0
  0
LINE
  8
0
 62
     0
 10
149.969
 20
7.6605
 30
0.0
 11
206.269
 21
7.6605
 31
0.0
  0
LINE
  8
0
 62
     0
 10
206.269
 20
7.6605
 30
0.0
 11
206.269
 21
3.19016
 31
0.0
  0
LINE
  8
0
 62
     0
 10
206.269
 20
3.19016
 30
0.0
 11
207.993
 21
3.19016
 31
0.0
  0
LINE
  8
0
 62
     0
 10
207.993
 20
3.19016
 30
0.0
 11
207.993
 21
1.98989
 31
0.0
  0
LINE
  8
0
 62
     0
 10
207.993
 20
1.98989
 30
0.0
 11
211.294
 21
1.98989
 31
0.0
  0
LINE
  8
0
 62
     0
 10
211.294
 20
1.98989
 30
0.0
 11
211.294
 21
3.19016
 31
0.0
  0
LINE
  8
0
 62
     0
 10
211.294
 20
3.19016
 30
0.0
 11
213.02
 21
3.19016
 31
0.0
  0
LINE
  8
0
 62
     0
 10
213.02
 20
3.19016
 30
0.0
 11
213.02
 21
9.46023
 31
0.0
  0
LINE
  8
0
 62
     0
 10
213.02
 20
9.46023
 30
0.0
 11
213.844
 21
9.46023
 31
0.0
  0
LINE
  8
0
 62
     0
 10
213.844
 20
9.46023
 30
0.0
 11
213.844
 21
12.2604
 31
0.0
  0
LINE
  8
0
 62
     0
 10
213.844
 20
12.2604
 30
0.0
 11
213.02
 21
12.2604
 31
0.0
  0
LINE
  8
0
 62
     0
 10
213.02
 20
12.2604
 30
0.0
 11
213.02
 21
15.4905
 31
0.0
  0
LINE
  8
0
 62
     0
 10
213.02
 20
15.4905
 30
0.0
 11
206.269
 21
15.4905
 31
0.0
  0
LINE
  8
0
 62
     0
 10
206.269
 20
15.4905
 30
0.0
 11
206.269
 21
12.2604
 31
0.0
  0
LINE
  8
0
 62
     0
 10
206.269
 20
12.2604
 30
0.0
 11
149.969
 21
12.2604
 31
0.0
  0
LINE
  8
0
 62
     0
 10
149.969
 20
12.2604
 30
0.0
 11
149.969
 21
16.9595
 31
0.0
  0
LINE
  8
0
 62
     0
 10
149.969
 20
16.9595
 30
0.0
 11
135.97
 21
16.9595
 31
0.0
  0
LINE
  8
0
 62
     0
 10
231.22
 20
16.9595
 30
0.0
 11
245.219
 21
16.9595
 31
0.0
  0
LINE
  8
0
 62
     0
 10
245.219
 20
16.9595
 30
0.0
 11
245.219
 21
2.96003
 31
0.0
  0
LINE
  8
0
 62
     0
 10
245.219
 20
2.96003
 30
0.0
 11
231.22
 21
2.96003
 31
0.0
  0
LINE
  8
0
 62
     0
 10
231.22
 20
2.96003
 30
0.0
 11
231.22
 21
16.9595
 31
0.0
  0
LINE
  8
0
 62
     0
 10
12.1447
 20
36.0094
 30
0.0
 11
12.1447
 21
31.3104
 31
0.0
  0
LINE
  8
0
 62
     0
 10
12.1447
 20
31.3104
 30
0.0
 11
10.6192
 21
31.3104
 31
0.0
  0
LINE
  8
0
 62
     0
 10
10.6192
 20
31.3104
 30
0.0
 11
10.6192
 21
34.5405
 31
0.0
  0
LINE
  8
0
 62
     0
 10
10.6192
 20
34.5405
 30
0.0
 11
3.86955
 21
34.5405
 31
0.0
  0
LINE
  8
0
 62
     0
 10
3.86955
 20
34.5405
 30
0.0
 11
3.86955
 21
31.3104
 31
0.0
  0
LINE
  8
0
 62
     0
 10
3.86955
 20
31.3104
 30
0.0
 11
3.04409
 21
31.3104
 31
0.0
  0
LINE
  8
0
 62
     0
 10
3.04409
 20
31.3104
 30
0.0
 11
3.04409
 21
28.5102
 31
0.0
  0
LINE
  8
0
 62
     0
 10
3.04409
 20
28.5102
 30
0.0
 11
3.86955
 21
28.5102
 31
0.0
  0
LINE
  8
0
 62
     0
 10
3.86955
 20
28.5102
 30
0.0
 11
3.86955
 21
22.2402
 31
0.0
  0
LINE
  8
0
 62
     0
 10
3.86955
 20
22.2402
 30
0.0
 11
5.59484
 21
22.2402
 31
0.0
  0
LINE
  8
0
 62
     0
 10
5.59484
 20
22.2402
 30
0.0
 11
5.59484
 21
21.0399
 31
0.0
  0
LINE
  8
0
 62
     0
 10
5.59484
 20
21.0399
 30
0.0
 11
8.89385
 21
21.0399
 31
0.0
  0
LINE
  8
0
 62
     0
 10
8.89385
 20
21.0399
 30
0.0
 11
8.89385
 21
22.2402
 31
0.0
  0
LINE
  8
0
 62
     0
 10
8.89385
 20
22.2402
 30
0.0
 11
10.6192
 21
22.2402
 31
0.0
  0
LINE
  8
0
 62
     0
 10
10.6192
 20
22.2402
 30
0.0
 11
10.6192
 21
26.7105
 31
0.0
  0
LINE
  8
0
 62
     0
 10
10.6192
 20
26.7105
 30
0.0
 11
12.1447
 21
26.7105
 31
0.0
  0
LINE
  8
0
 62
     0
 10
12.1447
 20
26.7105
 30
0.0
 11
12.1447
 21
22.01
 31
0.0
  0
LINE
  8
0
 62
     0
 10
12.1447
 20
22.01
 30
0.0
 11
26.1441
 21
22.01
 31
0.0
  0
LINE
  8
0
 62
     0
 10
26.1441
 20
22.01
 30
0.0
 11
26.1441
 21
26.7105
 31
0.0
  0
LINE
  8
0
 62
     0
 10
26.1441
 20
26.7105
 30
0.0
 11
27.6696
 21
26.7105
 31
0.0
  0
LINE
  8
0
 62
     0
 10
27.6696
 20
26.7105
 30
0.0
 11
27.6696
 21
22.2402
 31
0.0
  0
LINE
  8
0
 62
     0
 10
27.6696
 20
22.2402
 30
0.0
 11
29.3949
 21
22.2402
 31
0.0
  0
LINE
  8
0
 62
     0
 10
29.3949
 20
22.2402
 30
0.0
 11
29.3949
 21
21.0399
 31
0.0
  0
LINE
  8
0
 62
     0
 10
29.3949
 20
21.0399
 30
0.0
 11
32.694
 21
21.0399
 31
0.0
  0
LINE
  8
0
 62
     0
 10
32.694
 20
21.0399
 30
0.0
 11
32.694
 21
22.2402
 31
0.0
  0
LINE
  8
0
 62
     0
 10
32.694
 20
22.2402
 30
0.0
 11
34.4193
 21
22.2402
 31
0.0
  0
LINE
  8
0
 62
     0
 10
34.4193
 20
22.2402
 30
0.0
 11
34.4193
 21
28.5102
 31
0.0
  0
LINE
  8
0
 62
     0
 10
34.4193
 20
28.5102
 30
0.0
 11
35.2447
 21
28.5102
 31
0.0
  0
LINE
  8
0
 62
     0
 10
35.2447
 20
28.5102
 30
0.0
 11
35.2447
 21
31.3104
 31
0.0
  0
LINE
  8
0
 62
     0
 10
35.2447
 20
31.3104
 30
0.0
 11
34.4193
 21
31.3104
 31
0.0
  0
LINE
  8
0
 62
     0
 10
34.4193
 20
31.3104
 30
0.0
 11
34.4193
 21
34.5405
 31
0.0
  0
LINE
  8
0
 62
     0
 10
34.4193
 20
34.5405
 30
0.0
 11
27.6696
 21
34.5405
 31
0.0
  0
LINE
  8
0
 62
     0
 10
27.6696
 20
34.5405
 30
0.0
 11
27.6696
 21
31.3104
 31
0.0
  0
LINE
  8
0
 62
     0
 10
27.6696
 20
31.3104
 30
0.0
 11
26.1441
 21
31.3104
 31
0.0
  0
LINE
  8
0
 62
     0
 10
26.1441
 20
31.3104
 30
0.0
 11
26.1441
 21
36.0094
 31
0.0
  0
LINE
  8
0
 62
     0
 10
26.1441
 20
36.0094
 30
0.0
 11
12.1447
 21
36.0094
 31
0.0
  0
LINE
  8
0
 62
     0
 10
262.176
 20
36.0094
 30
0.0
 11
262.176
 21
31.3104
 31
0.0
  0
LINE
  8
0
 62
     0
 10
262.176
 20
31.3104
 30
0.0
 11
260.651
 21
31.3104
 31
0.0
  0
LINE
  8
0
 62
     0
 10
260.651
 20
31.3104
 30
0.0
 11
260.651
 21
34.5405
 31
0.0
  0
LINE
  8
0
 62
     0
 10
260.651
 20
34.5405
 30
0.0
 11
253.899
 21
34.5405
 31
0.0
  0
LINE
  8
0
 62
     0
 10
253.899
 20
34.5405
 30
0.0
 11
253.899
 21
31.3104
 31
0.0
  0
LINE
  8
0
 62
     0
 10
253.899
 20
31.3104
 30
0.0
 11
253.075
 21
31.3104
 31
0.0
  0
LINE
  8
0
 62
     0
 10
253.075
 20
31.3104
 30
0.0
 11
253.075
 21
28.5102
 31
0.0
  0
LINE
  8
0
 62
     0
 10
253.075
 20
28.5102
 30
0.0
 11
253.899
 21
28.5102
 31
0.0
  0
LINE
  8
0
 62
     0
 10
253.899
 20
28.5102
 30
0.0
 11
253.899
 21
22.2402
 31
0.0
  0
LINE
  8
0
 62
     0
 10
253.899
 20
22.2402
 30
0.0
 11
255.626
 21
22.2402
 31
0.0
  0
LINE
  8
0
 62
     0
 10
255.626
 20
22.2402
 30
0.0
 11
255.626
 21
21.0399
 31
0.0
  0
LINE
  8
0
 62
     0
 10
255.626
 20
21.0399
 30
0.0
 11
258.925
 21
21.0399
 31
0.0
  0
LINE
  8
0
 62
     0
 10
258.925
 20
21.0399
 30
0.0
 11
258.925
 21
22.2402
 31
0.0
  0
LINE
  8
0
 62
     0
 10
258.925
 20
22.2402
 30
0.0
 11
260.651
 21
22.2402
 31
0.0
  0
LINE
  8
0
 62
     0
 10
260.651
 20
22.2402
 30
0.0
 11
260.651
 21
26.7105
 31
0.0
  0
LINE
  8
0
 62
     0
 10
260.651
 20
26.7105
 30
0.0
 11
262.176
 21
26.7105
 31
0.0
  0
LINE
  8
0
 62
     0
 10
262.176
 20
26.7105
 30
0.0
 11
262.176
 21
22.01
 31
0.0
  0
LINE
  8
0
 62
     0
 10
262.176
 20
22.01
 30
0.0
 11
276.175
 21
22.01
 31
0.0
  0
LINE
  8
0
 62
     0
 10
276.175
 20
22.01
 30
0.0
 11
276.175
 21
26.7105
 31
0.0
  0
LINE
  8
0
 62
     0
 10
276.175
 20
26.7105
 30
0.0
 11
277.701
 21
26.7105
 31
0.0
  0
LINE
  8
0
 62
     0
 10
277.701
 20
26.7105
 30
0.0
 11
277.701
 21
22.2402
 31
0.0
  0
LINE
  8
0
 62
     0
 10
277.701
 20
22.2402
 30
0.0
 11
279.425
 21
22.2402
 31
0.0
  0
LINE
  8
0
 62
     0
 10
279.425
 20
22.2402
 30
0.0
 11
279.425
 21
21.0399
 31
0.0
  0
LINE
  8
0
 62
     0
 10
279.425
 20
21.0399
 30
0.0
 11
282.725
 21
21.0399
 31
0.0
  0
LINE
  8
0
 62
     0
 10
282.725
 20
21.0399
 30
0.0
 11
282.725
 21
22.2402
 31
0.0
  0
LINE
  8
0
 62
     0
 10
282.725
 20
22.2402
 30
0.0
 11
284.45
 21
22.2402
 31
0.0
  0
LINE
  8
0
 62
     0
 10
284.45
 20
22.2402
 30
0.0
 11
284.45
 21
28.5102
 31
0.0
  0
LINE
  8
0
 62
     0
 10
284.45
 20
28.5102
 30
0.0
 11
285.276
 21
28.5102
 31
0.0
  0
LINE
  8
0
 62
     0
 10
285.276
 20
28.5102
 30
0.0
 11
285.276
 21
31.3104
 31
0.0
  0
LINE
  8
0
 62
     0
 10
285.276
 20
31.3104
 30
0.0
 11
284.45
 21
31.3104
 31
0.0
  0
LINE
  8
0
 62
     0
 10
284.45
 20
31.3104
 30
0.0
 11
284.45
 21
34.5405
 31
0.0
  0
LINE
  8
0
 62
     0
 10
284.45
 20
34.5405
 30
0.0
 11
277.701
 21
34.5405
 31
0.0
  0
LINE
  8
0
 62
     0
 10
277.701
 20
34.5405
 30
0.0
 11
277.701
 21
31.3104
 31
0.0
  0
LINE
  8
0
 62
     0
 10
277.701
 20
31.3104
 30
0.0
 11
276.175
 21
31.3104
 31
0.0
  0
LINE
  8
0
 62
     0
 10
276.175
 20
31.3104
 30
0.0
 11
276.175
 21
36.0094
 31
0.0
  0
LINE
  8
0
 62
     0
 10
276.175
 20
36.0094
 30
0.0
 11
262.176
 21
36.0094
 31
0.0
  0
LINE
  8
0
 62
     0
 10
40.7197
 20
36.0094
 30
0.0
 11
54.719
 21
36.0094
 31
0.0
  0
LINE
  8
0
 62
     0
 10
54.719
 20
36.0094
 30
0.0
 11
54.719
 21
22.01
 31
0.0
  0
LINE
  8
0
 62
     0
 10
54.719
 20
22.01
 30
0.0
 11
40.7197
 21
22.01
 31
0.0
  0
LINE
  8
0
 62
     0
 10
40.7197
 20
22.01
 30
0.0
 11
40.7197
 21
36.0094
 31
0.0
  0
LINE
  8
0
 62
     0
 10
59.7697
 20
36.0094
 30
0.0
 11
73.769
 21
36.0094
 31
0.0
  0
LINE
  8
0
 62
     0
 10
73.769
 20
36.0094
 30
0.0
 11
73.769
 21
22.01
 31
0.0
  0
LINE
  8
0
 62
     0
 10
73.769
 20
22.01
 30
0.0
 11
59.7697
 21
22.01
 31
0.0
  0
LINE
  8
0
 62
     0
 10
59.7697
 20
22.01
 30
0.0
 11
59.7697
 21
36.0094
 31
0.0
  0
LINE
  8
0
 62
     0
 10
78.8197
 20
36.0094
 30
0.0
 11
92.819
 21
36.0094
 31
0.0
  0
LINE
  8
0
 62
     0
 10
92.819
 20
36.0094
 30
0.0
 11
92.819
 21
22.01
 31
0.0
  0
LINE
  8
0
 62
     0
 10
92.819
 20
22.01
 30
0.0
 11
78.8197
 21
22.01
 31
0.0
  0
LINE
  8
0
 62
     0
 10
78.8197
 20
22.01
 30
0.0
 11
78.8197
 21
36.0094
 31
0.0
  0
LINE
  8
0
 62
     0
 10
97.8683
 20
36.0094
 30
0.0
 11
111.869
 21
36.0094
 31
0.0
  0
LINE
  8
0
 62
     0
 10
111.869
 20
36.0094
 30
0.0
 11
111.869
 21
22.01
 31
0.0
  0
LINE
  8
0
 62
     0
 10
111.869
 20
22.01
 30
0.0
 11
97.8683
 21
22.01
 31
0.0
  0
LINE
  8
0
 62
     0
 10
97.8683
 20
22.01
 30
0.0
 11
97.8683
 21
36.0094
 31
0.0
  0
LINE
  8
0
 62
     0
 10
116.918
 20
36.0094
 30
0.0
 11
130.919
 21
36.0094
 31
0.0
  0
LINE
  8
0
 62
     0
 10
130.919
 20
36.0094
 30
0.0
 11
130.919
 21
22.01
 31
0.0
  0
LINE
  8
0
 62
     0
 10
130.919
 20
22.01
 30
0.0
 11
116.918
 21
22.01
 31
0.0
  0
LINE
  8
0
 62
     0
 10
116.918
 20
22.01
 30
0.0
 11
116.918
 21
36.0094
 31
0.0
  0
LINE
  8
0
 62
     0
 10
135.97
 20
36.0094
 30
0.0
 11
149.969
 21
36.0094
 31
0.0
  0
LINE
  8
0
 62
     0
 10
149.969
 20
36.0094
 30
0.0
 11
149.969
 21
22.01
 31
0.0
  0
LINE
  8
0
 62
     0
 10
149.969
 20
22.01
 30
0.0
 11
135.97
 21
22.01
 31
0.0
  0
LINE
  8
0
 62
     0
 10
135.97
 20
22.01
 30
0.0
 11
135.97
 21
36.0094
 31
0.0
  0
LINE
  8
0
 62
     0
 10
155.02
 20
36.0094
 30
0.0
 11
169.019
 21
36.0094
 31
0.0
  0
LINE
  8
0
 62
     0
 10
169.019
 20
36.0094
 30
0.0
 11
169.019
 21
22.01
 31
0.0
  0
LINE
  8
0
 62
     0
 10
169.019
 20
22.01
 30
0.0
 11
155.02
 21
22.01
 31
0.0
  0
LINE
  8
0
 62
     0
 10
155.02
 20
22.01
 30
0.0
 11
155.02
 21
36.0094
 31
0.0
  0
LINE
  8
0
 62
     0
 10
174.07
 20
36.0094
 30
0.0
 11
188.069
 21
36.0094
 31
0.0
  0
LINE
  8
0
 62
     0
 10
188.069
 20
36.0094
 30
0.0
 11
188.069
 21
22.01
 31
0.0
  0
LINE
  8
0
 62
     0
 10
188.069
 20
22.01
 30
0.0
 11
174.07
 21
22.01
 31
0.0
  0
LINE
  8
0
 62
     0
 10
174.07
 20
22.01
 30
0.0
 11
174.07
 21
36.0094
 31
0.0
  0
LINE
  8
0
 62
     0
 10
193.12
 20
36.0094
 30
0.0
 11
207.119
 21
36.0094
 31
0.0
  0
LINE
  8
0
 62
     0
 10
207.119
 20
36.0094
 30
0.0
 11
207.119
 21
22.01
 31
0.0
  0
LINE
  8
0
 62
     0
 10
207.119
 20
22.01
 30
0.0
 11
193.12
 21
22.01
 31
0.0
  0
LINE
  8
0
 62
     0
 10
193.12
 20
22.01
 30
0.0
 11
193.12
 21
36.0094
 31
0.0
  0
LINE
  8
0
 62
     0
 10
212.17
 20
36.0094
 30
0.0
 11
226.169
 21
36.0094
 31
0.0
  0
LINE
  8
0
 62
     0
 10
226.169
 20
36.0094
 30
0.0
 11
226.169
 21
22.01
 31
0.0
  0
LINE
  8
0
 62
     0
 10
226.169
 20
22.01
 30
0.0
 11
212.17
 21
22.01
 31
0.0
  0
LINE
  8
0
 62
     0
 10
212.17
 20
22.01
 30
0.0
 11
212.17
 21
36.0094
 31
0.0
  0
LINE
  8
0
 62
     0
 10
231.22
 20
36.0094
 30
0.0
 11
245.219
 21
36.0094
 31
0.0
  0
LINE
  8
0
 62
     0
 10
245.219
 20
36.0094
 30
0.0
 11
245.219
 21
22.01
 31
0.0
  0
LINE
  8
0
 62
     0
 10
245.219
 20
22.01
 30
0.0
 11
231.22
 21
22.01
 31
0.0
  0
LINE
  8
0
 62
     0
 10
231.22
 20
22.01
 30
0.0
 11
231.22
 21
36.0094
 31
0.0
  0
LINE
  8
0
 62
     0
 10
307.42
 20
36.0094
 30
0.0
 11
321.419
 21
36.0094
 31
0.0
  0
LINE
  8
0
 62
     0
 10
321.419
 20
36.0094
 30
0.0
 11
321.419
 21
22.01
 31
0.0
  0
LINE
  8
0
 62
     0
 10
321.419
 20
22.01
 30
0.0
 11
307.42
 21
22.01
 31
0.0
  0
LINE
  8
0
 62
     0
 10
307.42
 20
22.01
 30
0.0
 11
307.42
 21
36.0094
 31
0.0
  0
LINE
  8
0
 62
     0
 10
326.47
 20
36.0094
 30
0.0
 11
340.469
 21
36.0094
 31
0.0
  0
LINE
  8
0
 62
     0
 10
340.469
 20
36.0094
 30
0.0
 11
340.469
 21
22.01
 31
0.0
  0
LINE
  8
0
 62
     0
 10
340.469
 20
22.01
 30
0.0
 11
326.47
 21
22.01
 31
0.0
  0
LINE
  8
0
 62
     0
 10
326.47
 20
22.01
 30
0.0
 11
326.47
 21
36.0094
 31
0.0
  0
LINE
  8
0
 62
     0
 10
345.52
 20
36.0094
 30
0.0
 11
359.519
 21
36.0094
 31
0.0
  0
LINE
  8
0
 62
     0
 10
359.519
 20
36.0094
 30
0.0
 11
359.519
 21
22.01
 31
0.0
  0
LINE
  8
0
 62
     0
 10
359.519
 20
22.01
 30
0.0
 11
345.52
 21
22.01
 31
0.0
  0
LINE
  8
0
 62
     0
 10
345.52
 20
22.01
 30
0.0
 11
345.52
 21
36.0094
 31
0.0
  0
LINE
  8
0
 62
     0
 10
7.38216
 20
55.0594
 30
0.0
 11
21.3817
 21
55.0594
 31
0.0
  0
LINE
  8
0
 62
     0
 10
21.3817
 20
55.0594
 30
0.0
 11
21.3817
 21
41.0602
 31
0.0
  0
LINE
  8
0
 62
     0
 10
21.3817
 20
41.0602
 30
0.0
 11
7.38216
 21
41.0602
 31
0.0
  0
LINE
  8
0
 62
     0
 10
7.38216
 20
41.0602
 30
0.0
 11
7.38216
 21
55.0594
 31
0.0
  0
LINE
  8
0
 62
     0
 10
31.1947
 20
55.0594
 30
0.0
 11
45.194
 21
55.0594
 31
0.0
  0
LINE
  8
0
 62
     0
 10
45.194
 20
55.0594
 30
0.0
 11
45.194
 21
41.0602
 31
0.0
  0
LINE
  8
0
 62
     0
 10
45.194
 20
41.0602
 30
0.0
 11
31.1947
 21
41.0602
 31
0.0
  0
LINE
  8
0
 62
     0
 10
31.1947
 20
41.0602
 30
0.0
 11
31.1947
 21
55.0594
 31
0.0
  0
LINE
  8
0
 62
     0
 10
50.2447
 20
55.0594
 30
0.0
 11
64.244
 21
55.0594
 31
0.0
  0
LINE
  8
0
 62
     0
 10
64.244
 20
55.0594
 30
0.0
 11
64.244
 21
41.0602
 31
0.0
  0
LINE
  8
0
 62
     0
 10
64.244
 20
41.0602
 30
0.0
 11
50.2447
 21
41.0602
 31
0.0
  0
LINE
  8
0
 62
     0
 10
50.2447
 20
41.0602
 30
0.0
 11
50.2447
 21
55.0594
 31
0.0
  0
LINE
  8
0
 62
     0
 10
69.2947
 20
55.0594
 30
0.0
 11
83.294
 21
55.0594
 31
0.0
  0
LINE
  8
0
 62
     0
 10
83.294
 20
55.0594
 30
0.0
 11
83.294
 21
41.0602
 31
0.0
  0
LINE
  8
0
 62
     0
 10
83.294
 20
41.0602
 30
0.0
 11
69.2947
 21
41.0602
 31
0.0
  0
LINE
  8
0
 62
     0
 10
69.2947
 20
41.0602
 30
0.0
 11
69.2947
 21
55.0594
 31
0.0
  0
LINE
  8
0
 62
     0
 10
88.3447
 20
55.0594
 30
0.0
 11
102.344
 21
55.0594
 31
0.0
  0
LINE
  8
0
 62
     0
 10
102.344
 20
55.0594
 30
0.0
 11
102.344
 21
41.0602
 31
0.0
  0
LINE
  8
0
 62
     0
 10
102.344
 20
41.0602
 30
0.0
 11
88.3447
 21
41.0602
 31
0.0
  0
LINE
  8
0
 62
     0
 10
88.3447
 20
41.0602
 30
0.0
 11
88.3447
 21
55.0594
 31
0.0
  0
LINE
  8
0
 62
     0
 10
107.395
 20
55.0594
 30
0.0
 11
121.394
 21
55.0594
 31
0.0
  0
LINE
  8
0
 62
     0
 10
121.394
 20
55.0594
 30
0.0
 11
121.394
 21
41.0602
 31
0.0
  0
LINE
  8
0
 62
     0
 10
121.394
 20
41.0602
 30
0.0
 11
107.395
 21
41.0602
 31
0.0
  0
LINE
  8
0
 62
     0
 10
107.395
 20
41.0602
 30
0.0
 11
107.395
 21
55.0594
 31
0.0
  0
LINE
  8
0
 62
     0
 10
126.445
 20
55.0594
 30
0.0
 11
140.444
 21
55.0594
 31
0.0
  0
LINE
  8
0
 62
     0
 10
140.444
 20
55.0594
 30
0.0
 11
140.444
 21
41.0602
 31
0.0
  0
LINE
  8
0
 62
     0
 10
140.444
 20
41.0602
 30
0.0
 11
126.445
 21
41.0602
 31
0.0
  0
LINE
  8
0
 62
     0
 10
126.445
 20
41.0602
 30
0.0
 11
126.445
 21
55.0594
 31
0.0
  0
LINE
  8
0
 62
     0
 10
145.495
 20
55.0594
 30
0.0
 11
159.494
 21
55.0594
 31
0.0
  0
LINE
  8
0
 62
     0
 10
159.494
 20
55.0594
 30
0.0
 11
159.494
 21
41.0602
 31
0.0
  0
LINE
  8
0
 62
     0
 10
159.494
 20
41.0602
 30
0.0
 11
145.495
 21
41.0602
 31
0.0
  0
LINE
  8
0
 62
     0
 10
145.495
 20
41.0602
 30
0.0
 11
145.495
 21
55.0594
 31
0.0
  0
LINE
  8
0
 62
     0
 10
164.545
 20
55.0594
 30
0.0
 11
178.544
 21
55.0594
 31
0.0
  0
LINE
  8
0
 62
     0
 10
178.544
 20
55.0594
 30
0.0
 11
178.544
 21
41.0602
 31
0.0
  0
LINE
  8
0
 62
     0
 10
178.544
 20
41.0602
 30
0.0
 11
164.545
 21
41.0602
 31
0.0
  0
LINE
  8
0
 62
     0
 10
164.545
 20
41.0602
 30
0.0
 11
164.545
 21
55.0594
 31
0.0
  0
LINE
  8
0
 62
     0
 10
183.595
 20
55.0594
 30
0.0
 11
197.594
 21
55.0594
 31
0.0
  0
LINE
  8
0
 62
     0
 10
197.594
 20
55.0594
 30
0.0
 11
197.594
 21
41.0602
 31
0.0
  0
LINE
  8
0
 62
     0
 10
197.594
 20
41.0602
 30
0.0
 11
183.595
 21
41.0602
 31
0.0
  0
LINE
  8
0
 62
     0
 10
183.595
 20
41.0602
 30
0.0
 11
183.595
 21
55.0594
 31
0.0
  0
LINE
  8
0
 62
     0
 10
202.645
 20
55.0594
 30
0.0
 11
216.644
 21
55.0594
 31
0.0
  0
LINE
  8
0
 62
     0
 10
216.644
 20
55.0594
 30
0.0
 11
216.644
 21
41.0602
 31
0.0
  0
LINE
  8
0
 62
     0
 10
216.644
 20
41.0602
 30
0.0
 11
202.645
 21
41.0602
 31
0.0
  0
LINE
  8
0
 62
     0
 10
202.645
 20
41.0602
 30
0.0
 11
202.645
 21
55.0594
 31
0.0
  0
LINE
  8
0
 62
     0
 10
221.695
 20
55.0594
 30
0.0
 11
235.694
 21
55.0594
 31
0.0
  0
LINE
  8
0
 62
     0
 10
235.694
 20
55.0594
 30
0.0
 11
235.694
 21
41.0602
 31
0.0
  0
LINE
  8
0
 62
     0
 10
235.694
 20
41.0602
 30
0.0
 11
221.695
 21
41.0602
 31
0.0
  0
LINE
  8
0
 62
     0
 10
221.695
 20
41.0602
 30
0.0
 11
221.695
 21
55.0594
 31
0.0
  0
LINE
  8
0
 62
     0
 10
240.745
 20
55.0594
 30
0.0
 11
254.744
 21
55.0594
 31
0.0
  0
LINE
  8
0
 62
     0
 10
254.744
 20
55.0594
 30
0.0
 11
254.744
 21
41.0602
 31
0.0
  0
LINE
  8
0
 62
     0
 10
254.744
 20
41.0602
 30
0.0
 11
240.745
 21
41.0602
 31
0.0
  0
LINE
  8
0
 62
     0
 10
240.745
 20
41.0602
 30
0.0
 11
240.745
 21
55.0594
 31
0.0
  0
LINE
  8
0
 62
     0
 10
307.42
 20
55.0594
 30
0.0
 11
321.419
 21
55.0594
 31
0.0
  0
LINE
  8
0
 62
     0
 10
321.419
 20
55.0594
 30
0.0
 11
321.419
 21
41.0602
 31
0.0
  0
LINE
  8
0
 62
     0
 10
321.419
 20
41.0602
 30
0.0
 11
307.42
 21
41.0602
 31
0.0
  0
LINE
  8
0
 62
     0
 10
307.42
 20
41.0602
 30
0.0
 11
307.42
 21
55.0594
 31
0.0
  0
LINE
  8
0
 62
     0
 10
326.47
 20
55.0594
 30
0.0
 11
340.469
 21
55.0594
 31
0.0
  0
LINE
  8
0
 62
     0
 10
340.469
 20
55.0594
 30
0.0
 11
340.469
 21
41.0602
 31
0.0
  0
LINE
  8
0
 62
     0
 10
340.469
 20
41.0602
 30
0.0
 11
326.47
 21
41.0602
 31
0.0
  0
LINE
  8
0
 62
     0
 10
326.47
 20
41.0602
 30
0.0
 11
326.47
 21
55.0594
 31
0.0
  0
LINE
  8
0
 62
     0
 10
345.52
 20
55.0594
 30
0.0
 11
359.519
 21
55.0594
 31
0.0
  0
LINE
  8
0
 62
     0
 10
359.519
 20
55.0594
 30
0.0
 11
359.519
 21
41.0602
 31
0.0
  0
LINE
  8
0
 62
     0
 10
359.519
 20
41.0602
 30
0.0
 11
345.52
 21
41.0602
 31
0.0
  0
LINE
  8
0
 62
     0
 10
345.52
 20
41.0602
 30
0.0
 11
345.52
 21
55.0594
 31
0.0
  0
LINE
  8
0
 62
     0
 10
273.437
 20
73.685
 30
0.0
 11
273.437
 21
72.8595
 31
0.0
  0
LINE
  8
0
 62
     0
 10
273.437
 20
72.8595
 30
0.0
 11
267.167
 21
72.8595
 31
0.0
  0
LINE
  8
0
 62
     0
 10
267.167
 20
72.8595
 30
0.0
 11
267.167
 21
71.1359
 31
0.0
  0
LINE
  8
0
 62
     0
 10
267.167
 20
71.1359
 30
0.0
 11
265.967
 21
71.1359
 31
0.0
  0
LINE
  8
0
 62
     0
 10
265.967
 20
71.1359
 30
0.0
 11
265.967
 21
67.8353
 31
0.0
  0
LINE
  8
0
 62
     0
 10
265.967
 20
67.8353
 30
0.0
 11
267.167
 21
67.8353
 31
0.0
  0
LINE
  8
0
 62
     0
 10
267.167
 20
67.8353
 30
0.0
 11
267.167
 21
66.1098
 31
0.0
  0
LINE
  8
0
 62
     0
 10
267.167
 20
66.1098
 30
0.0
 11
271.637
 21
66.1098
 31
0.0
  0
LINE
  8
0
 62
     0
 10
271.637
 20
66.1098
 30
0.0
 11
271.637
 21
64.5844
 31
0.0
  0
LINE
  8
0
 62
     0
 10
271.637
 20
64.5844
 30
0.0
 11
266.937
 21
64.5844
 31
0.0
  0
LINE
  8
0
 62
     0
 10
266.937
 20
64.5844
 30
0.0
 11
266.937
 21
50.5852
 31
0.0
  0
LINE
  8
0
 62
     0
 10
266.937
 20
50.5852
 30
0.0
 11
271.637
 21
50.5852
 31
0.0
  0
LINE
  8
0
 62
     0
 10
271.637
 20
50.5852
 30
0.0
 11
271.637
 21
49.0594
 31
0.0
  0
LINE
  8
0
 62
     0
 10
271.637
 20
49.0594
 30
0.0
 11
267.167
 21
49.0594
 31
0.0
  0
LINE
  8
0
 62
     0
 10
267.167
 20
49.0594
 30
0.0
 11
267.167
 21
47.3357
 31
0.0
  0
LINE
  8
0
 62
     0
 10
267.167
 20
47.3357
 30
0.0
 11
265.967
 21
47.3357
 31
0.0
  0
LINE
  8
0
 62
     0
 10
265.967
 20
47.3357
 30
0.0
 11
265.967
 21
44.0351
 31
0.0
  0
LINE
  8
0
 62
     0
 10
265.967
 20
44.0351
 30
0.0
 11
267.167
 21
44.0351
 31
0.0
  0
LINE
  8
0
 62
     0
 10
267.167
 20
44.0351
 30
0.0
 11
267.167
 21
42.31
 31
0.0
  0
LINE
  8
0
 62
     0
 10
267.167
 20
42.31
 30
0.0
 11
273.437
 21
42.31
 31
0.0
  0
LINE
  8
0
 62
     0
 10
273.437
 20
42.31
 30
0.0
 11
273.437
 21
41.486
 31
0.0
  0
LINE
  8
0
 62
     0
 10
273.437
 20
41.486
 30
0.0
 11
276.237
 21
41.486
 31
0.0
  0
LINE
  8
0
 62
     0
 10
276.237
 20
41.486
 30
0.0
 11
276.237
 21
42.31
 31
0.0
  0
LINE
  8
0
 62
     0
 10
276.237
 20
42.31
 30
0.0
 11
279.467
 21
42.31
 31
0.0
  0
LINE
  8
0
 62
     0
 10
279.467
 20
42.31
 30
0.0
 11
279.467
 21
49.0594
 31
0.0
  0
LINE
  8
0
 62
     0
 10
279.467
 20
49.0594
 30
0.0
 11
276.237
 21
49.0594
 31
0.0
  0
LINE
  8
0
 62
     0
 10
276.237
 20
49.0594
 30
0.0
 11
276.237
 21
50.5852
 31
0.0
  0
LINE
  8
0
 62
     0
 10
276.237
 20
50.5852
 30
0.0
 11
280.938
 21
50.5852
 31
0.0
  0
LINE
  8
0
 62
     0
 10
280.938
 20
50.5852
 30
0.0
 11
280.938
 21
64.5844
 31
0.0
  0
LINE
  8
0
 62
     0
 10
280.938
 20
64.5844
 30
0.0
 11
276.237
 21
64.5844
 31
0.0
  0
LINE
  8
0
 62
     0
 10
276.237
 20
64.5844
 30
0.0
 11
276.237
 21
66.1098
 31
0.0
  0
LINE
  8
0
 62
     0
 10
276.237
 20
66.1098
 30
0.0
 11
279.467
 21
66.1098
 31
0.0
  0
LINE
  8
0
 62
     0
 10
279.467
 20
66.1098
 30
0.0
 11
279.467
 21
72.8595
 31
0.0
  0
LINE
  8
0
 62
     0
 10
279.467
 20
72.8595
 30
0.0
 11
276.237
 21
72.8595
 31
0.0
  0
LINE
  8
0
 62
     0
 10
276.237
 20
72.8595
 30
0.0
 11
276.237
 21
73.685
 31
0.0
  0
LINE
  8
0
 62
     0
 10
276.237
 20
73.685
 30
0.0
 11
273.437
 21
73.685
 31
0.0
  0
LINE
  8
0
 62
     0
 10
5.00091
 20
74.1094
 30
0.0
 11
19.0004
 21
74.1094
 31
0.0
  0
LINE
  8
0
 62
     0
 10
19.0004
 20
74.1094
 30
0.0
 11
19.0004
 21
60.1102
 31
0.0
  0
LINE
  8
0
 62
     0
 10
19.0004
 20
60.1102
 30
0.0
 11
5.00091
 21
60.1102
 31
0.0
  0
LINE
  8
0
 62
     0
 10
5.00091
 20
60.1102
 30
0.0
 11
5.00091
 21
74.1094
 31
0.0
  0
LINE
  8
0
 62
     0
 10
26.4322
 20
74.1094
 30
0.0
 11
40.4315
 21
74.1094
 31
0.0
  0
LINE
  8
0
 62
     0
 10
40.4315
 20
74.1094
 30
0.0
 11
40.4315
 21
60.1102
 31
0.0
  0
LINE
  8
0
 62
     0
 10
40.4315
 20
60.1102
 30
0.0
 11
26.4322
 21
60.1102
 31
0.0
  0
LINE
  8
0
 62
     0
 10
26.4322
 20
60.1102
 30
0.0
 11
26.4322
 21
74.1094
 31
0.0
  0
LINE
  8
0
 62
     0
 10
45.4822
 20
74.1094
 30
0.0
 11
59.4815
 21
74.1094
 31
0.0
  0
LINE
  8
0
 62
     0
 10
59.4815
 20
74.1094
 30
0.0
 11
59.4815
 21
60.1102
 31
0.0
  0
LINE
  8
0
 62
     0
 10
59.4815
 20
60.1102
 30
0.0
 11
45.4822
 21
60.1102
 31
0.0
  0
LINE
  8
0
 62
     0
 10
45.4822
 20
60.1102
 30
0.0
 11
45.4822
 21
74.1094
 31
0.0
  0
LINE
  8
0
 62
     0
 10
64.5322
 20
74.1094
 30
0.0
 11
78.5315
 21
74.1094
 31
0.0
  0
LINE
  8
0
 62
     0
 10
78.5315
 20
74.1094
 30
0.0
 11
78.5315
 21
60.1102
 31
0.0
  0
LINE
  8
0
 62
     0
 10
78.5315
 20
60.1102
 30
0.0
 11
64.5322
 21
60.1102
 31
0.0
  0
LINE
  8
0
 62
     0
 10
64.5322
 20
60.1102
 30
0.0
 11
64.5322
 21
74.1094
 31
0.0
  0
LINE
  8
0
 62
     0
 10
83.5822
 20
74.1094
 30
0.0
 11
97.5815
 21
74.1094
 31
0.0
  0
LINE
  8
0
 62
     0
 10
97.5815
 20
74.1094
 30
0.0
 11
97.5815
 21
60.1102
 31
0.0
  0
LINE
  8
0
 62
     0
 10
97.5815
 20
60.1102
 30
0.0
 11
83.5822
 21
60.1102
 31
0.0
  0
LINE
  8
0
 62
     0
 10
83.5822
 20
60.1102
 30
0.0
 11
83.5822
 21
74.1094
 31
0.0
  0
LINE
  8
0
 62
     0
 10
102.632
 20
74.1094
 30
0.0
 11
116.632
 21
74.1094
 31
0.0
  0
LINE
  8
0
 62
     0
 10
116.632
 20
74.1094
 30
0.0
 11
116.632
 21
60.1102
 31
0.0
  0
LINE
  8
0
 62
     0
 10
116.632
 20
60.1102
 30
0.0
 11
102.632
 21
60.1102
 31
0.0
  0
LINE
  8
0
 62
     0
 10
102.632
 20
60.1102
 30
0.0
 11
102.632
 21
74.1094
 31
0.0
  0
LINE
  8
0
 62
     0
 10
121.682
 20
74.1094
 30
0.0
 11
135.682
 21
74.1094
 31
0.0
  0
LINE
  8
0
 62
     0
 10
135.682
 20
74.1094
 30
0.0
 11
135.682
 21
60.1102
 31
0.0
  0
LINE
  8
0
 62
     0
 10
135.682
 20
60.1102
 30
0.0
 11
121.682
 21
60.1102
 31
0.0
  0
LINE
  8
0
 62
     0
 10
121.682
 20
60.1102
 30
0.0
 11
121.682
 21
74.1094
 31
0.0
  0
LINE
  8
0
 62
     0
 10
140.732
 20
74.1094
 30
0.0
 11
154.732
 21
74.1094
 31
0.0
  0
LINE
  8
0
 62
     0
 10
154.732
 20
74.1094
 30
0.0
 11
154.732
 21
60.1102
 31
0.0
  0
LINE
  8
0
 62
     0
 10
154.732
 20
60.1102
 30
0.0
 11
140.732
 21
60.1102
 31
0.0
  0
LINE
  8
0
 62
     0
 10
140.732
 20
60.1102
 30
0.0
 11
140.732
 21
74.1094
 31
0.0
  0
LINE
  8
0
 62
     0
 10
159.782
 20
74.1094
 30
0.0
 11
173.782
 21
74.1094
 31
0.0
  0
LINE
  8
0
 62
     0
 10
173.782
 20
74.1094
 30
0.0
 11
173.782
 21
60.1102
 31
0.0
  0
LINE
  8
0
 62
     0
 10
173.782
 20
60.1102
 30
0.0
 11
159.782
 21
60.1102
 31
0.0
  0
LINE
  8
0
 62
     0
 10
159.782
 20
60.1102
 30
0.0
 11
159.782
 21
74.1094
 31
0.0
  0
LINE
  8
0
 62
     0
 10
178.832
 20
74.1094
 30
0.0
 11
192.832
 21
74.1094
 31
0.0
  0
LINE
  8
0
 62
     0
 10
192.832
 20
74.1094
 30
0.0
 11
192.832
 21
60.1102
 31
0.0
  0
LINE
  8
0
 62
     0
 10
192.832
 20
60.1102
 30
0.0
 11
178.832
 21
60.1102
 31
0.0
  0
LINE
  8
0
 62
     0
 10
178.832
 20
60.1102
 30
0.0
 11
178.832
 21
74.1094
 31
0.0
  0
LINE
  8
0
 62
     0
 10
197.882
 20
74.1094
 30
0.0
 11
211.882
 21
74.1094
 31
0.0
  0
LINE
  8
0
 62
     0
 10
211.882
 20
74.1094
 30
0.0
 11
211.882
 21
60.1102
 31
0.0
  0
LINE
  8
0
 62
     0
 10
211.882
 20
60.1102
 30
0.0
 11
197.882
 21
60.1102
 31
0.0
  0
LINE
  8
0
 62
     0
 10
197.882
 20
60.1102
 30
0.0
 11
197.882
 21
74.1094
 31
0.0
  0
LINE
  8
0
 62
     0
 10
216.932
 20
74.1094
 30
0.0
 11
230.932
 21
74.1094
 31
0.0
  0
LINE
  8
0
 62
     0
 10
230.932
 20
74.1094
 30
0.0
 11
230.932
 21
60.1102
 31
0.0
  0
LINE
  8
0
 62
     0
 10
230.932
 20
60.1102
 30
0.0
 11
216.932
 21
60.1102
 31
0.0
  0
LINE
  8
0
 62
     0
 10
216.932
 20
60.1102
 30
0.0
 11
216.932
 21
74.1094
 31
0.0
  0
LINE
  8
0
 62
     0
 10
235.982
 20
74.1094
 30
0.0
 11
249.982
 21
74.1094
 31
0.0
  0
LINE
  8
0
 62
     0
 10
249.982
 20
74.1094
 30
0.0
 11
249.982
 21
60.1102
 31
0.0
  0
LINE
  8
0
 62
     0
 10
249.982
 20
60.1102
 30
0.0
 11
235.982
 21
60.1102
 31
0.0
  0
LINE
  8
0
 62
     0
 10
235.982
 20
60.1102
 30
0.0
 11
235.982
 21
74.1094
 31
0.0
  0
LINE
  8
0
 62
     0
 10
307.42
 20
74.1094
 30
0.0
 11
321.419
 21
74.1094
 31
0.0
  0
LINE
  8
0
 62
     0
 10
321.419
 20
74.1094
 30
0.0
 11
321.419
 21
60.1102
 31
0.0
  0
LINE
  8
0
 62
     0
 10
321.419
 20
60.1102
 30
0.0
 11
307.42
 21
60.1102
 31
0.0
  0
LINE
  8
0
 62
     0
 10
307.42
 20
60.1102
 30
0.0
 11
307.42
 21
74.1094
 31
0.0
  0
LINE
  8
0
 62
     0
 10
326.47
 20
74.1094
 30
0.0
 11
340.469
 21
74.1094
 31
0.0
  0
LINE
  8
0
 62
     0
 10
340.469
 20
74.1094
 30
0.0
 11
340.469
 21
60.1102
 31
0.0
  0
LINE
  8
0
 62
     0
 10
340.469
 20
60.1102
 30
0.0
 11
326.47
 21
60.1102
 31
0.0
  0
LINE
  8
0
 62
     0
 10
326.47
 20
60.1102
 30
0.0
 11
326.47
 21
74.1094
 31
0.0
  0
LINE
  8
0
 62
     0
 10
345.52
 20
74.1094
 30
0.0
 11
359.519
 21
74.1094
 31
0.0
  0
LINE
  8
0
 62
     0
 10
359.519
 20
74.1094
 30
0.0
 11
359.519
 21
60.1102
 31
0.0
  0
LINE
  8
0
 62
     0
 10
359.519
 20
60.1102
 30
0.0
 11
345.52
 21
60.1102
 31
0.0
  0
LINE
  8
0
 62
     0
 10
345.52
 20
60.1102
 30
0.0
 11
345.52
 21
74.1094
 31
0.0
  0
LINE
  8
0
 62
     0
 10
2.61965
 20
93.1594
 30
0.0
 11
16.6192
 21
93.1594
 31
0.0
  0
LINE
  8
0
 62
     0
 10
16.6192
 20
93.1594
 30
0.0
 11
16.6192
 21
79.1602
 31
0.0
  0
LINE
  8
0
 62
     0
 10
16.6192
 20
79.1602
 30
0.0
 11
2.61965
 21
79.1602
 31
0.0
  0
LINE
  8
0
 62
     0
 10
2.61965
 20
79.1602
 30
0.0
 11
2.61965
 21
93.1594
 31
0.0
  0
LINE
  8
0
 62
     0
 10
21.6697
 20
93.1594
 30
0.0
 11
35.669
 21
93.1594
 31
0.0
  0
LINE
  8
0
 62
     0
 10
35.669
 20
93.1594
 30
0.0
 11
35.669
 21
79.1602
 31
0.0
  0
LINE
  8
0
 62
     0
 10
35.669
 20
79.1602
 30
0.0
 11
21.6697
 21
79.1602
 31
0.0
  0
LINE
  8
0
 62
     0
 10
21.6697
 20
79.1602
 30
0.0
 11
21.6697
 21
93.1594
 31
0.0
  0
LINE
  8
0
 62
     0
 10
40.7197
 20
93.1594
 30
0.0
 11
54.719
 21
93.1594
 31
0.0
  0
LINE
  8
0
 62
     0
 10
54.719
 20
93.1594
 30
0.0
 11
54.719
 21
79.1602
 31
0.0
  0
LINE
  8
0
 62
     0
 10
54.719
 20
79.1602
 30
0.0
 11
40.7197
 21
79.1602
 31
0.0
  0
LINE
  8
0
 62
     0
 10
40.7197
 20
79.1602
 30
0.0
 11
40.7197
 21
93.1594
 31
0.0
  0
LINE
  8
0
 62
     0
 10
59.7697
 20
93.1594
 30
0.0
 11
73.769
 21
93.1594
 31
0.0
  0
LINE
  8
0
 62
     0
 10
73.769
 20
93.1594
 30
0.0
 11
73.769
 21
79.1602
 31
0.0
  0
LINE
  8
0
 62
     0
 10
73.769
 20
79.1602
 30
0.0
 11
59.7697
 21
79.1602
 31
0.0
  0
LINE
  8
0
 62
     0
 10
59.7697
 20
79.1602
 30
0.0
 11
59.7697
 21
93.1594
 31
0.0
  0
LINE
  8
0
 62
     0
 10
78.8197
 20
93.1594
 30
0.0
 11
92.819
 21
93.1594
 31
0.0
  0
LINE
  8
0
 62
     0
 10
92.819
 20
93.1594
 30
0.0
 11
92.819
 21
79.1602
 31
0.0
  0
LINE
  8
0
 62
     0
 10
92.819
 20
79.1602
 30
0.0
 11
78.8197
 21
79.1602
 31
0.0
  0
LINE
  8
0
 62
     0
 10
78.8197
 20
79.1602
 30
0.0
 11
78.8197
 21
93.1594
 31
0.0
  0
LINE
  8
0
 62
     0
 10
97.8683
 20
93.1594
 30
0.0
 11
111.869
 21
93.1594
 31
0.0
  0
LINE
  8
0
 62
     0
 10
111.869
 20
93.1594
 30
0.0
 11
111.869
 21
79.1602
 31
0.0
  0
LINE
  8
0
 62
     0
 10
111.869
 20
79.1602
 30
0.0
 11
97.8683
 21
79.1602
 31
0.0
  0
LINE
  8
0
 62
     0
 10
97.8683
 20
79.1602
 30
0.0
 11
97.8683
 21
93.1594
 31
0.0
  0
LINE
  8
0
 62
     0
 10
116.918
 20
93.1594
 30
0.0
 11
130.919
 21
93.1594
 31
0.0
  0
LINE
  8
0
 62
     0
 10
130.919
 20
93.1594
 30
0.0
 11
130.919
 21
79.1602
 31
0.0
  0
LINE
  8
0
 62
     0
 10
130.919
 20
79.1602
 30
0.0
 11
116.918
 21
79.1602
 31
0.0
  0
LINE
  8
0
 62
     0
 10
116.918
 20
79.1602
 30
0.0
 11
116.918
 21
93.1594
 31
0.0
  0
LINE
  8
0
 62
     0
 10
135.97
 20
93.1594
 30
0.0
 11
149.969
 21
93.1594
 31
0.0
  0
LINE
  8
0
 62
     0
 10
149.969
 20
93.1594
 30
0.0
 11
149.969
 21
79.1602
 31
0.0
  0
LINE
  8
0
 62
     0
 10
149.969
 20
79.1602
 30
0.0
 11
135.97
 21
79.1602
 31
0.0
  0
LINE
  8
0
 62
     0
 10
135.97
 20
79.1602
 30
0.0
 11
135.97
 21
93.1594
 31
0.0
  0
LINE
  8
0
 62
     0
 10
155.02
 20
93.1594
 30
0.0
 11
169.019
 21
93.1594
 31
0.0
  0
LINE
  8
0
 62
     0
 10
169.019
 20
93.1594
 30
0.0
 11
169.019
 21
79.1602
 31
0.0
  0
LINE
  8
0
 62
     0
 10
169.019
 20
79.1602
 30
0.0
 11
155.02
 21
79.1602
 31
0.0
  0
LINE
  8
0
 62
     0
 10
155.02
 20
79.1602
 30
0.0
 11
155.02
 21
93.1594
 31
0.0
  0
LINE
  8
0
 62
     0
 10
174.07
 20
93.1594
 30
0.0
 11
188.069
 21
93.1594
 31
0.0
  0
LINE
  8
0
 62
     0
 10
188.069
 20
93.1594
 30
0.0
 11
188.069
 21
79.1602
 31
0.0
  0
LINE
  8
0
 62
     0
 10
188.069
 20
79.1602
 30
0.0
 11
174.07
 21
79.1602
 31
0.0
  0
LINE
  8
0
 62
     0
 10
174.07
 20
79.1602
 30
0.0
 11
174.07
 21
93.1594
 31
0.0
  0
LINE
  8
0
 62
     0
 10
193.12
 20
93.1594
 30
0.0
 11
207.119
 21
93.1594
 31
0.0
  0
LINE
  8
0
 62
     0
 10
207.119
 20
93.1594
 30
0.0
 11
207.119
 21
79.1602
 31
0.0
  0
LINE
  8
0
 62
     0
 10
207.119
 20
79.1602
 30
0.0
 11
193.12
 21
79.1602
 31
0.0
  0
LINE
  8
0
 62
     0
 10
193.12
 20
79.1602
 30
0.0
 11
193.12
 21
93.1594
 31
0.0
  0
LINE
  8
0
 62
     0
 10
212.17
 20
93.1594
 30
0.0
 11
226.169
 21
93.1594
 31
0.0
  0
LINE
  8
0
 62
     0
 10
226.169
 20
93.1594
 30
0.0
 11
226.169
 21
79.1602
 31
0.0
  0
LINE
  8
0
 62
     0
 10
226.169
 20
79.1602
 30
0.0
 11
212.17
 21
79.1602
 31
0.0
  0
LINE
  8
0
 62
     0
 10
212.17
 20
79.1602
 30
0.0
 11
212.17
 21
93.1594
 31
0.0
  0
LINE
  8
0
 62
     0
 10
231.22
 20
93.1594
 30
0.0
 11
245.219
 21
93.1594
 31
0.0
  0
LINE
  8
0
 62
     0
 10
245.219
 20
93.1594
 30
0.0
 11
245.219
 21
79.1602
 31
0.0
  0
LINE
  8
0
 62
     0
 10
245.219
 20
79.1602
 30
0.0
 11
231.22
 21
79.1602
 31
0.0
  0
LINE
  8
0
 62
     0
 10
231.22
 20
79.1602
 30
0.0
 11
231.22
 21
93.1594
 31
0.0
  0
LINE
  8
0
 62
     0
 10
250.27
 20
93.1594
 30
0.0
 11
264.269
 21
93.1594
 31
0.0
  0
LINE
  8
0
 62
     0
 10
264.269
 20
93.1594
 30
0.0
 11
264.269
 21
79.1602
 31
0.0
  0
LINE
  8
0
 62
     0
 10
264.269
 20
79.1602
 30
0.0
 11
250.27
 21
79.1602
 31
0.0
  0
LINE
  8
0
 62
     0
 10
250.27
 20
79.1602
 30
0.0
 11
250.27
 21
93.1594
 31
0.0
  0
LINE
  8
0
 62
     0
 10
271.701
 20
93.1594
 30
0.0
 11
285.7
 21
93.1594
 31
0.0
  0
LINE
  8
0
 62
     0
 10
285.7
 20
93.1594
 30
0.0
 11
285.7
 21
79.1602
 31
0.0
  0
LINE
  8
0
 62
     0
 10
285.7
 20
79.1602
 30
0.0
 11
271.701
 21
79.1602
 31
0.0
  0
LINE
  8
0
 62
     0
 10
271.701
 20
79.1602
 30
0.0
 11
271.701
 21
93.1594
 31
0.0
  0
LINE
  8
0
 62
     0
 10
307.42
 20
93.1594
 30
0.0
 11
321.419
 21
93.1594
 31
0.0
  0
LINE
  8
0
 62
     0
 10
321.419
 20
93.1594
 30
0.0
 11
321.419
 21
79.1602
 31
0.0
  0
LINE
  8
0
 62
     0
 10
321.419
 20
79.1602
 30
0.0
 11
307.42
 21
79.1602
 31
0.0
  0
LINE
  8
0
 62
     0
 10
307.42
 20
79.1602
 30
0.0
 11
307.42
 21
93.1594
 31
0.0
  0
LINE
  8
0
 62
     0
 10
326.47
 20
93.1594
 30
0.0
 11
340.469
 21
93.1594
 31
0.0
  0
LINE
  8
0
 62
     0
 10
340.469
 20
93.1594
 30
0.0
 11
340.469
 21
79.1602
 31
0.0
  0
LINE
  8
0
 62
     0
 10
340.469
 20
79.1602
 30
0.0
 11
326.47
 21
79.1602
 31
0.0
  0
LINE
  8
0
 62
     0
 10
326.47
 20
79.1602
 30
0.0
 11
326.47
 21
93.1594
 31
0.0
  0
LINE
  8
0
 62
     0
 10
345.52
 20
93.1594
 30
0.0
 11
359.519
 21
93.1594
 31
0.0
  0
LINE
  8
0
 62
     0
 10
359.519
 20
93.1594
 30
0.0
 11
359.519
 21
79.1602
 31
0.0
  0
LINE
  8
0
 62
     0
 10
359.519
 20
79.1602
 30
0.0
 11
345.52
 21
79.1602
 31
0.0
  0
LINE
  8
0
 62
     0
 10
345.52
 20
79.1602
 30
0.0
 11
345.52
 21
93.1594
 31
0.0
  0
LINE
  8
0
 62
     0
 10
326.47
 20
116.972
 30
0.0
 11
340.469
 21
116.972
 31
0.0
  0
LINE
  8
0
 62
     0
 10
340.469
 20
116.972
 30
0.0
 11
340.469
 21
102.973
 31
0.0
  0
LINE
  8
0
 62
     0
 10
340.469
 20
102.973
 30
0.0
 11
326.47
 21
102.973
 31
0.0
  0
LINE
  8
0
 62
     0
 10
326.47
 20
102.973
 30
0.0
 11
326.47
 21
116.972
 31
0.0
  0
LINE
  8
0
 62
     0
 10
307.42
 20
136.022
 30
0.0
 11
321.419
 21
136.022
 31
0.0
  0
LINE
  8
0
 62
     0
 10
321.419
 20
136.022
 30
0.0
 11
321.419
 21
122.023
 31
0.0
  0
LINE
  8
0
 62
     0
 10
321.419
 20
122.023
 30
0.0
 11
307.42
 21
122.023
 31
0.0
  0
LINE
  8
0
 62
     0
 10
307.42
 20
122.023
 30
0.0
 11
307.42
 21
136.022
 31
0.0
  0
LINE
  8
0
 62
     0
 10
326.47
 20
136.022
 30
0.0
 11
340.469
 21
136.022
 31
0.0
  0
LINE
  8
0
 62
     0
 10
340.469
 20
136.022
 30
0.0
 11
340.469
 21
122.023
 31
0.0
  0
LINE
  8
0
 62
     0
 10
340.469
 20
122.023
 30
0.0
 11
326.47
 21
122.023
 31
0.0
  0
LINE
  8
0
 62
     0
 10
326.47
 20
122.023
 30
0.0
 11
326.47
 21
136.022
 31
0.0
  0
LINE
  8
0
 62
     0
 10
345.52
 20
136.022
 30
0.0
 11
359.519
 21
136.022
 31
0.0
  0
LINE
  8
0
 62
     0
 10
359.519
 20
136.022
 30
0.0
 11
359.519
 21
122.023
 31
0.0
  0
LINE
  8
0
 62
     0
 10
359.519
 20
122.023
 30
0.0
 11
345.52
 21
122.023
 31
0.0
  0
LINE
  8
0
 62
     0
 10
345.52
 20
122.023
 30
0.0
 11
345.52
 21
136.022
 31
0.0
  0
LINE
  8
0
 62
     0
 10
326.47
 20
155.072
 30
0.0
 11
340.469
 21
155.072
 31
0.0
  0
LINE
  8
0
 62
     0
 10
340.469
 20
155.072
 30
0.0
 11
340.469
 21
141.073
 31
0.0
  0
LINE
  8
0
 62
     0
 10
340.469
 20
141.073
 30
0.0
 11
326.47
 21
141.073
 31
0.0
  0
LINE
  8
0
 62
     0
 10
326.47
 20
141.073
 30
0.0
 11
326.47
 21
155.072
 31
0.0
  0
ENDSEC
  0
EOF
