  0
SECTION
  2
HEADER
  9
$ACADVER
  1
AC1009
  9
$FILLMODE
 70
 0
  9
$SPLFRAME
 70
 1
  9
$EXTMIN
 10
0
 20
0
 30
0.0
  9
$EXTMAX
 10
1058.33
 20
1058.33
 30
0.0
  0
ENDSEC
  0
SECTION
  2
TABLES
  0
TABLE
  2
LAYER
 70
1
  0
LAYER
  2
0
 70
     0
 62
     7
  6
CONTINUOUS
  0
ENDTAB
  0
ENDSEC
  0
SECTION
  2
ENTITIES
  0
LINE
  8
0
 62
     0
 10
0.0950846
 20
157.596
 30
0.0
 11
362.045
 21
157.596
 31
0.0
  0
LINE
  8
0
 62
     0
 10
362.045
 20
157.596
 30
0.0
 11
362.045
 21
0.434082
 31
0.0
  0
LINE
  8
0
 62
     0
 10
362.045
 20
0.434082
 30
0.0
 11
0.0950846
 21
0.434082
 31
0.0
  0
LINE
  8
0
 62
     0
 10
0.0950846
 20
0.434082
 30
0.0
 11
0.0950846
 21
157.596
 31
0.0
  0
LINE
  8
0
 62
     0
 10
135.97
 20
16.9595
 30
0.0
 11
135.97
 21
12.2604
 31
0.0
  0
LINE
  8
0
 62
     0
 10
135.97
 20
12.2604
 30
0.0
 11
89.1949
 21
12.2604
 31
0.0
  0
LINE
  8
0
 62
     0
 10
89.1949
 20
12.2604
 30
0.0
 11
89.1949
 21
15.4905
 31
0.0
  0
LINE
  8
0
 62
     0
 10
89.1949
 20
15.4905
 30
0.0
 11
82.4438
 21
15.4905
 31
0.0
  0
LINE
  8
0
 62
     0
 10
82.4438
 20
15.4905
 30
0.0
 11
82.4438
 21
12.2604
 31
0.0
  0
LINE
  8
0
 62
     0
 10
82.4438
 20
12.2604
 30
0.0
 11
81.6197
 21
12.2604
 31
0.0
  0
LINE
  8
0
 62
     0
 10
81.6197
 20
12.2604
 30
0.0
 11
81.6197
 21
9.46023
 31
0.0
  0
LINE
  8
0
 62
     0
 10
81.6197
 20
9.46023
 30
0.0
 11
82.4438
 21
9.46023
 31
0.0
  0
LINE
  8
0
 62
     0
 10
82.4438
 20
9.46023
 30
0.0
 11
82.4438
 21
3.19016
 31
0.0
  0
LINE
  8
0
 62
     0
 10
82.4438
 20
3.19016
 30
0.0
 11
84.1692
 21
3.19016
 31
0.0
  0
LINE
  8
0
 62
     0
 10
84.1692
 20
3.19016
 30
0.0
 11
84.1692
 21
1.98989
 31
0.0
  0
LINE
  8
0
 62
     0
 10
84.1692
 20
1.98989
 30
0.0
 11
87.4695
 21
1.98989
 31
0.0
  0
LINE
  8
0
 62
     0
 10
87.4695
 20
1.98989
 30
0.0
 11
87.4695
 21
3.19016
 31
0.0
  0
LINE
  8
0
 62
     0
 10
87.4695
 20
3.19016
 30
0.0
 11
89.1949
 21
3.19016
 31
0.0
  0
LINE
  8
0
 62
     0
 10
89.1949
 20
3.19016
 30
0.0
 11
89.1949
 21
7.6605
 31
0.0
  0
LINE
  8
0
 62
     0
 10
89.1949
 20
7.6605
 30
0.0
 11
135.97
 21
7.6605
 31
0.0
  0
LINE
  8
0
 62
     0
 10
135.97
 20
7.6605
 30
0.0
 11
135.97
 21
2.96003
 31
0.0
  0
LINE
  8
0
 62
     0
 10
135.97
 20
2.96003
 30
0.0
 11
149.969
 21
2.96003
 31
0.0
  0
LINE
  8
0
 62
     0
 10
149.969
 20
2.96003
 30
0.0
 11
149.969
 21
7.6605
 31
0.0
  0
LINE
  8
0
 62
     0
 10
149.969
 20
7.6605
 30
0.0
 11
196.744
 21
7.6605
 31
0.0
  0
LINE
  8
0
 62
     0
 10
196.744
 20
7.6605
 30
0.0
 11
196.744
 21
3.19016
 31
0.0
  0
LINE
  8
0
 62
     0
 10
196.744
 20
3.19016
 30
0.0
 11
198.469
 21
3.19016
 31
0.0
  0
LINE
  8
0
 62
     0
 10
198.469
 20
3.19016
 30
0.0
 11
198.469
 21
1.98989
 31
0.0
  0
LINE
  8
0
 62
     0
 10
198.469
 20
1.98989
 30
0.0
 11
201.769
 21
1.98989
 31
0.0
  0
LINE
  8
0
 62
     0
 10
201.769
 20
1.98989
 30
0.0
 11
201.769
 21
3.19016
 31
0.0
  0
LINE
  8
0
 62
     0
 10
201.769
 20
3.19016
 30
0.0
 11
203.495
 21
3.19016
 31
0.0
  0
LINE
  8
0
 62
     0
 10
203.495
 20
3.19016
 30
0.0
 11
203.495
 21
9.46023
 31
0.0
  0
LINE
  8
0
 62
     0
 10
203.495
 20
9.46023
 30
0.0
 11
204.319
 21
9.46023
 31
0.0
  0
LINE
  8
0
 62
     0
 10
204.319
 20
9.46023
 30
0.0
 11
204.319
 21
12.2604
 31
0.0
  0
LINE
  8
0
 62
     0
 10
204.319
 20
12.2604
 30
0.0
 11
203.495
 21
12.2604
 31
0.0
  0
LINE
  8
0
 62
     0
 10
203.495
 20
12.2604
 30
0.0
 11
203.495
 21
15.4905
 31
0.0
  0
LINE
  8
0
 62
     0
 10
203.495
 20
15.4905
 30
0.0
 11
196.744
 21
15.4905
 31
0.0
  0
LINE
  8
0
 62
     0
 10
196.744
 20
15.4905
 30
0.0
 11
196.744
 21
12.2604
 31
0.0
  0
LINE
  8
0
 62
     0
 10
196.744
 20
12.2604
 30
0.0
 11
149.969
 21
12.2604
 31
0.0
  0
LINE
  8
0
 62
     0
 10
149.969
 20
12.2604
 30
0.0
 11
149.969
 21
16.9595
 31
0.0
  0
LINE
  8
0
 62
     0
 10
149.969
 20
16.9595
 30
0.0
 11
135.97
 21
16.9595
 31
0.0
  0
LINE
  8
0
 62
     0
 10
235.982
 20
16.9595
 30
0.0
 11
249.982
 21
16.9595
 31
0.0
  0
LINE
  8
0
 62
     0
 10
249.982
 20
16.9595
 30
0.0
 11
249.982
 21
2.96003
 31
0.0
  0
LINE
  8
0
 62
     0
 10
249.982
 20
2.96003
 30
0.0
 11
235.982
 21
2.96003
 31
0.0
  0
LINE
  8
0
 62
     0
 10
235.982
 20
2.96003
 30
0.0
 11
235.982
 21
16.9595
 31
0.0
  0
LINE
  8
0
 62
     0
 10
14.5259
 20
36.0094
 30
0.0
 11
14.5259
 21
31.3104
 31
0.0
  0
LINE
  8
0
 62
     0
 10
14.5259
 20
31.3104
 30
0.0
 11
13.0004
 21
31.3104
 31
0.0
  0
LINE
  8
0
 62
     0
 10
13.0004
 20
31.3104
 30
0.0
 11
13.0004
 21
34.5405
 31
0.0
  0
LINE
  8
0
 62
     0
 10
13.0004
 20
34.5405
 30
0.0
 11
6.2508
 21
34.5405
 31
0.0
  0
LINE
  8
0
 62
     0
 10
6.2508
 20
34.5405
 30
0.0
 11
6.2508
 21
31.3104
 31
0.0
  0
LINE
  8
0
 62
     0
 10
6.2508
 20
31.3104
 30
0.0
 11
5.42533
 21
31.3104
 31
0.0
  0
LINE
  8
0
 62
     0
 10
5.42533
 20
31.3104
 30
0.0
 11
5.42533
 21
28.5102
 31
0.0
  0
LINE
  8
0
 62
     0
 10
5.42533
 20
28.5102
 30
0.0
 11
6.2508
 21
28.5102
 31
0.0
  0
LINE
  8
0
 62
     0
 10
6.2508
 20
28.5102
 30
0.0
 11
6.2508
 21
22.2402
 31
0.0
  0
LINE
  8
0
 62
     0
 10
6.2508
 20
22.2402
 30
0.0
 11
7.97609
 21
22.2402
 31
0.0
  0
LINE
  8
0
 62
     0
 10
7.97609
 20
22.2402
 30
0.0
 11
7.97609
 21
21.0399
 31
0.0
  0
LINE
  8
0
 62
     0
 10
7.97609
 20
21.0399
 30
0.0
 11
11.2751
 21
21.0399
 31
0.0
  0
LINE
  8
0
 62
     0
 10
11.2751
 20
21.0399
 30
0.0
 11
11.2751
 21
22.2402
 31
0.0
  0
LINE
  8
0
 62
     0
 10
11.2751
 20
22.2402
 30
0.0
 11
13.0004
 21
22.2402
 31
0.0
  0
LINE
  8
0
 62
     0
 10
13.0004
 20
22.2402
 30
0.0
 11
13.0004
 21
26.7105
 31
0.0
  0
LINE
  8
0
 62
     0
 10
13.0004
 20
26.7105
 30
0.0
 11
14.5259
 21
26.7105
 31
0.0
  0
LINE
  8
0
 62
     0
 10
14.5259
 20
26.7105
 30
0.0
 11
14.5259
 21
22.01
 31
0.0
  0
LINE
  8
0
 62
     0
 10
14.5259
 20
22.01
 30
0.0
 11
28.5254
 21
22.01
 31
0.0
  0
LINE
  8
0
 62
     0
 10
28.5254
 20
22.01
 30
0.0
 11
28.5254
 21
26.7105
 31
0.0
  0
LINE
  8
0
 62
     0
 10
28.5254
 20
26.7105
 30
0.0
 11
30.0509
 21
26.7105
 31
0.0
  0
LINE
  8
0
 62
     0
 10
30.0509
 20
26.7105
 30
0.0
 11
30.0509
 21
22.2402
 31
0.0
  0
LINE
  8
0
 62
     0
 10
30.0509
 20
22.2402
 30
0.0
 11
31.7748
 21
22.2402
 31
0.0
  0
LINE
  8
0
 62
     0
 10
31.7748
 20
22.2402
 30
0.0
 11
31.7748
 21
21.0399
 31
0.0
  0
LINE
  8
0
 62
     0
 10
31.7748
 20
21.0399
 30
0.0
 11
35.0752
 21
21.0399
 31
0.0
  0
LINE
  8
0
 62
     0
 10
35.0752
 20
21.0399
 30
0.0
 11
35.0752
 21
22.2402
 31
0.0
  0
LINE
  8
0
 62
     0
 10
35.0752
 20
22.2402
 30
0.0
 11
36.8004
 21
22.2402
 31
0.0
  0
LINE
  8
0
 62
     0
 10
36.8004
 20
22.2402
 30
0.0
 11
36.8004
 21
28.5102
 31
0.0
  0
LINE
  8
0
 62
     0
 10
36.8004
 20
28.5102
 30
0.0
 11
37.6259
 21
28.5102
 31
0.0
  0
LINE
  8
0
 62
     0
 10
37.6259
 20
28.5102
 30
0.0
 11
37.6259
 21
31.3104
 31
0.0
  0
LINE
  8
0
 62
     0
 10
37.6259
 20
31.3104
 30
0.0
 11
36.8004
 21
31.3104
 31
0.0
  0
LINE
  8
0
 62
     0
 10
36.8004
 20
31.3104
 30
0.0
 11
36.8004
 21
34.5405
 31
0.0
  0
LINE
  8
0
 62
     0
 10
36.8004
 20
34.5405
 30
0.0
 11
30.0509
 21
34.5405
 31
0.0
  0
LINE
  8
0
 62
     0
 10
30.0509
 20
34.5405
 30
0.0
 11
30.0509
 21
31.3104
 31
0.0
  0
LINE
  8
0
 62
     0
 10
30.0509
 20
31.3104
 30
0.0
 11
28.5254
 21
31.3104
 31
0.0
  0
LINE
  8
0
 62
     0
 10
28.5254
 20
31.3104
 30
0.0
 11
28.5254
 21
36.0094
 31
0.0
  0
LINE
  8
0
 62
     0
 10
28.5254
 20
36.0094
 30
0.0
 11
14.5259
 21
36.0094
 31
0.0
  0
LINE
  8
0
 62
     0
 10
264.557
 20
36.0094
 30
0.0
 11
264.557
 21
31.3104
 31
0.0
  0
LINE
  8
0
 62
     0
 10
264.557
 20
31.3104
 30
0.0
 11
263.032
 21
31.3104
 31
0.0
  0
LINE
  8
0
 62
     0
 10
263.032
 20
31.3104
 30
0.0
 11
263.032
 21
34.5405
 31
0.0
  0
LINE
  8
0
 62
     0
 10
263.032
 20
34.5405
 30
0.0
 11
256.282
 21
34.5405
 31
0.0
  0
LINE
  8
0
 62
     0
 10
256.282
 20
34.5405
 30
0.0
 11
256.282
 21
31.3104
 31
0.0
  0
LINE
  8
0
 62
     0
 10
256.282
 20
31.3104
 30
0.0
 11
255.457
 21
31.3104
 31
0.0
  0
LINE
  8
0
 62
     0
 10
255.457
 20
31.3104
 30
0.0
 11
255.457
 21
28.5102
 31
0.0
  0
LINE
  8
0
 62
     0
 10
255.457
 20
28.5102
 30
0.0
 11
256.282
 21
28.5102
 31
0.0
  0
LINE
  8
0
 62
     0
 10
256.282
 20
28.5102
 30
0.0
 11
256.282
 21
22.2402
 31
0.0
  0
LINE
  8
0
 62
     0
 10
256.282
 20
22.2402
 30
0.0
 11
258.006
 21
22.2402
 31
0.0
  0
LINE
  8
0
 62
     0
 10
258.006
 20
22.2402
 30
0.0
 11
258.006
 21
21.0399
 31
0.0
  0
LINE
  8
0
 62
     0
 10
258.006
 20
21.0399
 30
0.0
 11
261.306
 21
21.0399
 31
0.0
  0
LINE
  8
0
 62
     0
 10
261.306
 20
21.0399
 30
0.0
 11
261.306
 21
22.2402
 31
0.0
  0
LINE
  8
0
 62
     0
 10
261.306
 20
22.2402
 30
0.0
 11
263.032
 21
22.2402
 31
0.0
  0
LINE
  8
0
 62
     0
 10
263.032
 20
22.2402
 30
0.0
 11
263.032
 21
26.7105
 31
0.0
  0
LINE
  8
0
 62
     0
 10
263.032
 20
26.7105
 30
0.0
 11
264.557
 21
26.7105
 31
0.0
  0
LINE
  8
0
 62
     0
 10
264.557
 20
26.7105
 30
0.0
 11
264.557
 21
22.01
 31
0.0
  0
LINE
  8
0
 62
     0
 10
264.557
 20
22.01
 30
0.0
 11
278.557
 21
22.01
 31
0.0
  0
LINE
  8
0
 62
     0
 10
278.557
 20
22.01
 30
0.0
 11
278.557
 21
26.7105
 31
0.0
  0
LINE
  8
0
 62
     0
 10
278.557
 20
26.7105
 30
0.0
 11
280.082
 21
26.7105
 31
0.0
  0
LINE
  8
0
 62
     0
 10
280.082
 20
26.7105
 30
0.0
 11
280.082
 21
22.2402
 31
0.0
  0
LINE
  8
0
 62
     0
 10
280.082
 20
22.2402
 30
0.0
 11
281.806
 21
22.2402
 31
0.0
  0
LINE
  8
0
 62
     0
 10
281.806
 20
22.2402
 30
0.0
 11
281.806
 21
21.0399
 31
0.0
  0
LINE
  8
0
 62
     0
 10
281.806
 20
21.0399
 30
0.0
 11
285.107
 21
21.0399
 31
0.0
  0
LINE
  8
0
 62
     0
 10
285.107
 20
21.0399
 30
0.0
 11
285.107
 21
22.2402
 31
0.0
  0
LINE
  8
0
 62
     0
 10
285.107
 20
22.2402
 30
0.0
 11
286.832
 21
22.2402
 31
0.0
  0
LINE
  8
0
 62
     0
 10
286.832
 20
22.2402
 30
0.0
 11
286.832
 21
28.5102
 31
0.0
  0
LINE
  8
0
 62
     0
 10
286.832
 20
28.5102
 30
0.0
 11
287.656
 21
28.5102
 31
0.0
  0
LINE
  8
0
 62
     0
 10
287.656
 20
28.5102
 30
0.0
 11
287.656
 21
31.3104
 31
0.0
  0
LINE
  8
0
 62
     0
 10
287.656
 20
31.3104
 30
0.0
 11
286.832
 21
31.3104
 31
0.0
  0
LINE
  8
0
 62
     0
 10
286.832
 20
31.3104
 30
0.0
 11
286.832
 21
34.5405
 31
0.0
  0
LINE
  8
0
 62
     0
 10
286.832
 20
34.5405
 30
0.0
 11
280.082
 21
34.5405
 31
0.0
  0
LINE
  8
0
 62
     0
 10
280.082
 20
34.5405
 30
0.0
 11
280.082
 21
31.3104
 31
0.0
  0
LINE
  8
0
 62
     0
 10
280.082
 20
31.3104
 30
0.0
 11
278.557
 21
31.3104
 31
0.0
  0
LINE
  8
0
 62
     0
 10
278.557
 20
31.3104
 30
0.0
 11
278.557
 21
36.0094
 31
0.0
  0
LINE
  8
0
 62
     0
 10
278.557
 20
36.0094
 30
0.0
 11
264.557
 21
36.0094
 31
0.0
  0
LINE
  8
0
 62
     0
 10
45.4822
 20
36.0094
 30
0.0
 11
59.4815
 21
36.0094
 31
0.0
  0
LINE
  8
0
 62
     0
 10
59.4815
 20
36.0094
 30
0.0
 11
59.4815
 21
22.01
 31
0.0
  0
LINE
  8
0
 62
     0
 10
59.4815
 20
22.01
 30
0.0
 11
45.4822
 21
22.01
 31
0.0
  0
LINE
  8
0
 62
     0
 10
45.4822
 20
22.01
 30
0.0
 11
45.4822
 21
36.0094
 31
0.0
  0
LINE
  8
0
 62
     0
 10
64.5322
 20
36.0094
 30
0.0
 11
78.5315
 21
36.0094
 31
0.0
  0
LINE
  8
0
 62
     0
 10
78.5315
 20
36.0094
 30
0.0
 11
78.5315
 21
22.01
 31
0.0
  0
LINE
  8
0
 62
     0
 10
78.5315
 20
22.01
 30
0.0
 11
64.5322
 21
22.01
 31
0.0
  0
LINE
  8
0
 62
     0
 10
64.5322
 20
22.01
 30
0.0
 11
64.5322
 21
36.0094
 31
0.0
  0
LINE
  8
0
 62
     0
 10
83.5822
 20
36.0094
 30
0.0
 11
97.5815
 21
36.0094
 31
0.0
  0
LINE
  8
0
 62
     0
 10
97.5815
 20
36.0094
 30
0.0
 11
97.5815
 21
22.01
 31
0.0
  0
LINE
  8
0
 62
     0
 10
97.5815
 20
22.01
 30
0.0
 11
83.5822
 21
22.01
 31
0.0
  0
LINE
  8
0
 62
     0
 10
83.5822
 20
22.01
 30
0.0
 11
83.5822
 21
36.0094
 31
0.0
  0
LINE
  8
0
 62
     0
 10
102.632
 20
36.0094
 30
0.0
 11
116.632
 21
36.0094
 31
0.0
  0
LINE
  8
0
 62
     0
 10
116.632
 20
36.0094
 30
0.0
 11
116.632
 21
22.01
 31
0.0
  0
LINE
  8
0
 62
     0
 10
116.632
 20
22.01
 30
0.0
 11
102.632
 21
22.01
 31
0.0
  0
LINE
  8
0
 62
     0
 10
102.632
 20
22.01
 30
0.0
 11
102.632
 21
36.0094
 31
0.0
  0
LINE
  8
0
 62
     0
 10
121.682
 20
36.0094
 30
0.0
 11
135.682
 21
36.0094
 31
0.0
  0
LINE
  8
0
 62
     0
 10
135.682
 20
36.0094
 30
0.0
 11
135.682
 21
22.01
 31
0.0
  0
LINE
  8
0
 62
     0
 10
135.682
 20
22.01
 30
0.0
 11
121.682
 21
22.01
 31
0.0
  0
LINE
  8
0
 62
     0
 10
121.682
 20
22.01
 30
0.0
 11
121.682
 21
36.0094
 31
0.0
  0
LINE
  8
0
 62
     0
 10
140.732
 20
36.0094
 30
0.0
 11
154.732
 21
36.0094
 31
0.0
  0
LINE
  8
0
 62
     0
 10
154.732
 20
36.0094
 30
0.0
 11
154.732
 21
22.01
 31
0.0
  0
LINE
  8
0
 62
     0
 10
154.732
 20
22.01
 30
0.0
 11
140.732
 21
22.01
 31
0.0
  0
LINE
  8
0
 62
     0
 10
140.732
 20
22.01
 30
0.0
 11
140.732
 21
36.0094
 31
0.0
  0
LINE
  8
0
 62
     0
 10
159.782
 20
36.0094
 30
0.0
 11
173.782
 21
36.0094
 31
0.0
  0
LINE
  8
0
 62
     0
 10
173.782
 20
36.0094
 30
0.0
 11
173.782
 21
22.01
 31
0.0
  0
LINE
  8
0
 62
     0
 10
173.782
 20
22.01
 30
0.0
 11
159.782
 21
22.01
 31
0.0
  0
LINE
  8
0
 62
     0
 10
159.782
 20
22.01
 30
0.0
 11
159.782
 21
36.0094
 31
0.0
  0
LINE
  8
0
 62
     0
 10
178.832
 20
36.0094
 30
0.0
 11
192.832
 21
36.0094
 31
0.0
  0
LINE
  8
0
 62
     0
 10
192.832
 20
36.0094
 30
0.0
 11
192.832
 21
22.01
 31
0.0
  0
LINE
  8
0
 62
     0
 10
192.832
 20
22.01
 30
0.0
 11
178.832
 21
22.01
 31
0.0
  0
LINE
  8
0
 62
     0
 10
178.832
 20
22.01
 30
0.0
 11
178.832
 21
36.0094
 31
0.0
  0
LINE
  8
0
 62
     0
 10
197.882
 20
36.0094
 30
0.0
 11
211.882
 21
36.0094
 31
0.0
  0
LINE
  8
0
 62
     0
 10
211.882
 20
36.0094
 30
0.0
 11
211.882
 21
22.01
 31
0.0
  0
LINE
  8
0
 62
     0
 10
211.882
 20
22.01
 30
0.0
 11
197.882
 21
22.01
 31
0.0
  0
LINE
  8
0
 62
     0
 10
197.882
 20
22.01
 30
0.0
 11
197.882
 21
36.0094
 31
0.0
  0
LINE
  8
0
 62
     0
 10
216.932
 20
36.0094
 30
0.0
 11
230.932
 21
36.0094
 31
0.0
  0
LINE
  8
0
 62
     0
 10
230.932
 20
36.0094
 30
0.0
 11
230.932
 21
22.01
 31
0.0
  0
LINE
  8
0
 62
     0
 10
230.932
 20
22.01
 30
0.0
 11
216.932
 21
22.01
 31
0.0
  0
LINE
  8
0
 62
     0
 10
216.932
 20
22.01
 30
0.0
 11
216.932
 21
36.0094
 31
0.0
  0
LINE
  8
0
 62
     0
 10
235.982
 20
36.0094
 30
0.0
 11
249.982
 21
36.0094
 31
0.0
  0
LINE
  8
0
 62
     0
 10
249.982
 20
36.0094
 30
0.0
 11
249.982
 21
22.01
 31
0.0
  0
LINE
  8
0
 62
     0
 10
249.982
 20
22.01
 30
0.0
 11
235.982
 21
22.01
 31
0.0
  0
LINE
  8
0
 62
     0
 10
235.982
 20
22.01
 30
0.0
 11
235.982
 21
36.0094
 31
0.0
  0
LINE
  8
0
 62
     0
 10
307.42
 20
36.0094
 30
0.0
 11
321.419
 21
36.0094
 31
0.0
  0
LINE
  8
0
 62
     0
 10
321.419
 20
36.0094
 30
0.0
 11
321.419
 21
22.01
 31
0.0
  0
LINE
  8
0
 62
     0
 10
321.419
 20
22.01
 30
0.0
 11
307.42
 21
22.01
 31
0.0
  0
LINE
  8
0
 62
     0
 10
307.42
 20
22.01
 30
0.0
 11
307.42
 21
36.0094
 31
0.0
  0
LINE
  8
0
 62
     0
 10
326.47
 20
36.0094
 30
0.0
 11
340.469
 21
36.0094
 31
0.0
  0
LINE
  8
0
 62
     0
 10
340.469
 20
36.0094
 30
0.0
 11
340.469
 21
22.01
 31
0.0
  0
LINE
  8
0
 62
     0
 10
340.469
 20
22.01
 30
0.0
 11
326.47
 21
22.01
 31
0.0
  0
LINE
  8
0
 62
     0
 10
326.47
 20
22.01
 30
0.0
 11
326.47
 21
36.0094
 31
0.0
  0
LINE
  8
0
 62
     0
 10
345.52
 20
36.0094
 30
0.0
 11
359.519
 21
36.0094
 31
0.0
  0
LINE
  8
0
 62
     0
 10
359.519
 20
36.0094
 30
0.0
 11
359.519
 21
22.01
 31
0.0
  0
LINE
  8
0
 62
     0
 10
359.519
 20
22.01
 30
0.0
 11
345.52
 21
22.01
 31
0.0
  0
LINE
  8
0
 62
     0
 10
345.52
 20
22.01
 30
0.0
 11
345.52
 21
36.0094
 31
0.0
  0
LINE
  8
0
 62
     0
 10
12.1447
 20
55.0594
 30
0.0
 11
12.1447
 21
50.3604
 31
0.0
  0
LINE
  8
0
 62
     0
 10
12.1447
 20
50.3604
 30
0.0
 11
10.6192
 21
50.3604
 31
0.0
  0
LINE
  8
0
 62
     0
 10
10.6192
 20
50.3604
 30
0.0
 11
10.6192
 21
53.5905
 31
0.0
  0
LINE
  8
0
 62
     0
 10
10.6192
 20
53.5905
 30
0.0
 11
3.86955
 21
53.5905
 31
0.0
  0
LINE
  8
0
 62
     0
 10
3.86955
 20
53.5905
 30
0.0
 11
3.86955
 21
50.3604
 31
0.0
  0
LINE
  8
0
 62
     0
 10
3.86955
 20
50.3604
 30
0.0
 11
3.04409
 21
50.3604
 31
0.0
  0
LINE
  8
0
 62
     0
 10
3.04409
 20
50.3604
 30
0.0
 11
3.04409
 21
47.5601
 31
0.0
  0
LINE
  8
0
 62
     0
 10
3.04409
 20
47.5601
 30
0.0
 11
3.86955
 21
47.5601
 31
0.0
  0
LINE
  8
0
 62
     0
 10
3.86955
 20
47.5601
 30
0.0
 11
3.86955
 21
41.2902
 31
0.0
  0
LINE
  8
0
 62
     0
 10
3.86955
 20
41.2902
 30
0.0
 11
5.59484
 21
41.2902
 31
0.0
  0
LINE
  8
0
 62
     0
 10
5.59484
 20
41.2902
 30
0.0
 11
5.59484
 21
40.09
 31
0.0
  0
LINE
  8
0
 62
     0
 10
5.59484
 20
40.09
 30
0.0
 11
8.89385
 21
40.09
 31
0.0
  0
LINE
  8
0
 62
     0
 10
8.89385
 20
40.09
 30
0.0
 11
8.89385
 21
41.2902
 31
0.0
  0
LINE
  8
0
 62
     0
 10
8.89385
 20
41.2902
 30
0.0
 11
10.6192
 21
41.2902
 31
0.0
  0
LINE
  8
0
 62
     0
 10
10.6192
 20
41.2902
 30
0.0
 11
10.6192
 21
45.7606
 31
0.0
  0
LINE
  8
0
 62
     0
 10
10.6192
 20
45.7606
 30
0.0
 11
12.1447
 21
45.7606
 31
0.0
  0
LINE
  8
0
 62
     0
 10
12.1447
 20
45.7606
 30
0.0
 11
12.1447
 21
41.0602
 31
0.0
  0
LINE
  8
0
 62
     0
 10
12.1447
 20
41.0602
 30
0.0
 11
26.1441
 21
41.0602
 31
0.0
  0
LINE
  8
0
 62
     0
 10
26.1441
 20
41.0602
 30
0.0
 11
26.1441
 21
45.7606
 31
0.0
  0
LINE
  8
0
 62
     0
 10
26.1441
 20
45.7606
 30
0.0
 11
27.6696
 21
45.7606
 31
0.0
  0
LINE
  8
0
 62
     0
 10
27.6696
 20
45.7606
 30
0.0
 11
27.6696
 21
41.2902
 31
0.0
  0
LINE
  8
0
 62
     0
 10
27.6696
 20
41.2902
 30
0.0
 11
29.3949
 21
41.2902
 31
0.0
  0
LINE
  8
0
 62
     0
 10
29.3949
 20
41.2902
 30
0.0
 11
29.3949
 21
40.09
 31
0.0
  0
LINE
  8
0
 62
     0
 10
29.3949
 20
40.09
 30
0.0
 11
32.694
 21
40.09
 31
0.0
  0
LINE
  8
0
 62
     0
 10
32.694
 20
40.09
 30
0.0
 11
32.694
 21
41.2902
 31
0.0
  0
LINE
  8
0
 62
     0
 10
32.694
 20
41.2902
 30
0.0
 11
34.4193
 21
41.2902
 31
0.0
  0
LINE
  8
0
 62
     0
 10
34.4193
 20
41.2902
 30
0.0
 11
34.4193
 21
47.5601
 31
0.0
  0
LINE
  8
0
 62
     0
 10
34.4193
 20
47.5601
 30
0.0
 11
35.2447
 21
47.5601
 31
0.0
  0
LINE
  8
0
 62
     0
 10
35.2447
 20
47.5601
 30
0.0
 11
35.2447
 21
50.3604
 31
0.0
  0
LINE
  8
0
 62
     0
 10
35.2447
 20
50.3604
 30
0.0
 11
34.4193
 21
50.3604
 31
0.0
  0
LINE
  8
0
 62
     0
 10
34.4193
 20
50.3604
 30
0.0
 11
34.4193
 21
53.5905
 31
0.0
  0
LINE
  8
0
 62
     0
 10
34.4193
 20
53.5905
 30
0.0
 11
27.6696
 21
53.5905
 31
0.0
  0
LINE
  8
0
 62
     0
 10
27.6696
 20
53.5905
 30
0.0
 11
27.6696
 21
50.3604
 31
0.0
  0
LINE
  8
0
 62
     0
 10
27.6696
 20
50.3604
 30
0.0
 11
26.1441
 21
50.3604
 31
0.0
  0
LINE
  8
0
 62
     0
 10
26.1441
 20
50.3604
 30
0.0
 11
26.1441
 21
55.0594
 31
0.0
  0
LINE
  8
0
 62
     0
 10
26.1441
 20
55.0594
 30
0.0
 11
12.1447
 21
55.0594
 31
0.0
  0
LINE
  8
0
 62
     0
 10
40.7197
 20
55.0594
 30
0.0
 11
54.719
 21
55.0594
 31
0.0
  0
LINE
  8
0
 62
     0
 10
54.719
 20
55.0594
 30
0.0
 11
54.719
 21
41.0602
 31
0.0
  0
LINE
  8
0
 62
     0
 10
54.719
 20
41.0602
 30
0.0
 11
40.7197
 21
41.0602
 31
0.0
  0
LINE
  8
0
 62
     0
 10
40.7197
 20
41.0602
 30
0.0
 11
40.7197
 21
55.0594
 31
0.0
  0
LINE
  8
0
 62
     0
 10
59.7697
 20
55.0594
 30
0.0
 11
73.769
 21
55.0594
 31
0.0
  0
LINE
  8
0
 62
     0
 10
73.769
 20
55.0594
 30
0.0
 11
73.769
 21
41.0602
 31
0.0
  0
LINE
  8
0
 62
     0
 10
73.769
 20
41.0602
 30
0.0
 11
59.7697
 21
41.0602
 31
0.0
  0
LINE
  8
0
 62
     0
 10
59.7697
 20
41.0602
 30
0.0
 11
59.7697
 21
55.0594
 31
0.0
  0
LINE
  8
0
 62
     0
 10
78.8197
 20
55.0594
 30
0.0
 11
92.819
 21
55.0594
 31
0.0
  0
LINE
  8
0
 62
     0
 10
92.819
 20
55.0594
 30
0.0
 11
92.819
 21
41.0602
 31
0.0
  0
LINE
  8
0
 62
     0
 10
92.819
 20
41.0602
 30
0.0
 11
78.8197
 21
41.0602
 31
0.0
  0
LINE
  8
0
 62
     0
 10
78.8197
 20
41.0602
 30
0.0
 11
78.8197
 21
55.0594
 31
0.0
  0
LINE
  8
0
 62
     0
 10
97.8683
 20
55.0594
 30
0.0
 11
111.869
 21
55.0594
 31
0.0
  0
LINE
  8
0
 62
     0
 10
111.869
 20
55.0594
 30
0.0
 11
111.869
 21
41.0602
 31
0.0
  0
LINE
  8
0
 62
     0
 10
111.869
 20
41.0602
 30
0.0
 11
97.8683
 21
41.0602
 31
0.0
  0
LINE
  8
0
 62
     0
 10
97.8683
 20
41.0602
 30
0.0
 11
97.8683
 21
55.0594
 31
0.0
  0
LINE
  8
0
 62
     0
 10
116.918
 20
55.0594
 30
0.0
 11
130.919
 21
55.0594
 31
0.0
  0
LINE
  8
0
 62
     0
 10
130.919
 20
55.0594
 30
0.0
 11
130.919
 21
41.0602
 31
0.0
  0
LINE
  8
0
 62
     0
 10
130.919
 20
41.0602
 30
0.0
 11
116.918
 21
41.0602
 31
0.0
  0
LINE
  8
0
 62
     0
 10
116.918
 20
41.0602
 30
0.0
 11
116.918
 21
55.0594
 31
0.0
  0
LINE
  8
0
 62
     0
 10
135.97
 20
55.0594
 30
0.0
 11
149.969
 21
55.0594
 31
0.0
  0
LINE
  8
0
 62
     0
 10
149.969
 20
55.0594
 30
0.0
 11
149.969
 21
41.0602
 31
0.0
  0
LINE
  8
0
 62
     0
 10
149.969
 20
41.0602
 30
0.0
 11
135.97
 21
41.0602
 31
0.0
  0
LINE
  8
0
 62
     0
 10
135.97
 20
41.0602
 30
0.0
 11
135.97
 21
55.0594
 31
0.0
  0
LINE
  8
0
 62
     0
 10
155.02
 20
55.0594
 30
0.0
 11
169.019
 21
55.0594
 31
0.0
  0
LINE
  8
0
 62
     0
 10
169.019
 20
55.0594
 30
0.0
 11
169.019
 21
41.0602
 31
0.0
  0
LINE
  8
0
 62
     0
 10
169.019
 20
41.0602
 30
0.0
 11
155.02
 21
41.0602
 31
0.0
  0
LINE
  8
0
 62
     0
 10
155.02
 20
41.0602
 30
0.0
 11
155.02
 21
55.0594
 31
0.0
  0
LINE
  8
0
 62
     0
 10
174.07
 20
55.0594
 30
0.0
 11
188.069
 21
55.0594
 31
0.0
  0
LINE
  8
0
 62
     0
 10
188.069
 20
55.0594
 30
0.0
 11
188.069
 21
41.0602
 31
0.0
  0
LINE
  8
0
 62
     0
 10
188.069
 20
41.0602
 30
0.0
 11
174.07
 21
41.0602
 31
0.0
  0
LINE
  8
0
 62
     0
 10
174.07
 20
41.0602
 30
0.0
 11
174.07
 21
55.0594
 31
0.0
  0
LINE
  8
0
 62
     0
 10
193.12
 20
55.0594
 30
0.0
 11
207.119
 21
55.0594
 31
0.0
  0
LINE
  8
0
 62
     0
 10
207.119
 20
55.0594
 30
0.0
 11
207.119
 21
41.0602
 31
0.0
  0
LINE
  8
0
 62
     0
 10
207.119
 20
41.0602
 30
0.0
 11
193.12
 21
41.0602
 31
0.0
  0
LINE
  8
0
 62
     0
 10
193.12
 20
41.0602
 30
0.0
 11
193.12
 21
55.0594
 31
0.0
  0
LINE
  8
0
 62
     0
 10
212.17
 20
55.0594
 30
0.0
 11
226.169
 21
55.0594
 31
0.0
  0
LINE
  8
0
 62
     0
 10
226.169
 20
55.0594
 30
0.0
 11
226.169
 21
41.0602
 31
0.0
  0
LINE
  8
0
 62
     0
 10
226.169
 20
41.0602
 30
0.0
 11
212.17
 21
41.0602
 31
0.0
  0
LINE
  8
0
 62
     0
 10
212.17
 20
41.0602
 30
0.0
 11
212.17
 21
55.0594
 31
0.0
  0
LINE
  8
0
 62
     0
 10
231.22
 20
55.0594
 30
0.0
 11
245.219
 21
55.0594
 31
0.0
  0
LINE
  8
0
 62
     0
 10
245.219
 20
55.0594
 30
0.0
 11
245.219
 21
41.0602
 31
0.0
  0
LINE
  8
0
 62
     0
 10
245.219
 20
41.0602
 30
0.0
 11
231.22
 21
41.0602
 31
0.0
  0
LINE
  8
0
 62
     0
 10
231.22
 20
41.0602
 30
0.0
 11
231.22
 21
55.0594
 31
0.0
  0
LINE
  8
0
 62
     0
 10
250.27
 20
55.0594
 30
0.0
 11
264.269
 21
55.0594
 31
0.0
  0
LINE
  8
0
 62
     0
 10
264.269
 20
55.0594
 30
0.0
 11
264.269
 21
41.0602
 31
0.0
  0
LINE
  8
0
 62
     0
 10
264.269
 20
41.0602
 30
0.0
 11
250.27
 21
41.0602
 31
0.0
  0
LINE
  8
0
 62
     0
 10
250.27
 20
41.0602
 30
0.0
 11
250.27
 21
55.0594
 31
0.0
  0
LINE
  8
0
 62
     0
 10
307.42
 20
55.0594
 30
0.0
 11
321.419
 21
55.0594
 31
0.0
  0
LINE
  8
0
 62
     0
 10
321.419
 20
55.0594
 30
0.0
 11
321.419
 21
41.0602
 31
0.0
  0
LINE
  8
0
 62
     0
 10
321.419
 20
41.0602
 30
0.0
 11
307.42
 21
41.0602
 31
0.0
  0
LINE
  8
0
 62
     0
 10
307.42
 20
41.0602
 30
0.0
 11
307.42
 21
55.0594
 31
0.0
  0
LINE
  8
0
 62
     0
 10
326.47
 20
55.0594
 30
0.0
 11
340.469
 21
55.0594
 31
0.0
  0
LINE
  8
0
 62
     0
 10
340.469
 20
55.0594
 30
0.0
 11
340.469
 21
41.0602
 31
0.0
  0
LINE
  8
0
 62
     0
 10
340.469
 20
41.0602
 30
0.0
 11
326.47
 21
41.0602
 31
0.0
  0
LINE
  8
0
 62
     0
 10
326.47
 20
41.0602
 30
0.0
 11
326.47
 21
55.0594
 31
0.0
  0
LINE
  8
0
 62
     0
 10
345.52
 20
55.0594
 30
0.0
 11
359.519
 21
55.0594
 31
0.0
  0
LINE
  8
0
 62
     0
 10
359.519
 20
55.0594
 30
0.0
 11
359.519
 21
41.0602
 31
0.0
  0
LINE
  8
0
 62
     0
 10
359.519
 20
41.0602
 30
0.0
 11
345.52
 21
41.0602
 31
0.0
  0
LINE
  8
0
 62
     0
 10
345.52
 20
41.0602
 30
0.0
 11
345.52
 21
55.0594
 31
0.0
  0
LINE
  8
0
 62
     0
 10
278.201
 20
73.685
 30
0.0
 11
278.201
 21
72.8595
 31
0.0
  0
LINE
  8
0
 62
     0
 10
278.201
 20
72.8595
 30
0.0
 11
271.931
 21
72.8595
 31
0.0
  0
LINE
  8
0
 62
     0
 10
271.931
 20
72.8595
 30
0.0
 11
271.931
 21
71.1359
 31
0.0
  0
LINE
  8
0
 62
     0
 10
271.931
 20
71.1359
 30
0.0
 11
270.731
 21
71.1359
 31
0.0
  0
LINE
  8
0
 62
     0
 10
270.731
 20
71.1359
 30
0.0
 11
270.731
 21
67.8353
 31
0.0
  0
LINE
  8
0
 62
     0
 10
270.731
 20
67.8353
 30
0.0
 11
271.931
 21
67.8353
 31
0.0
  0
LINE
  8
0
 62
     0
 10
271.931
 20
67.8353
 30
0.0
 11
271.931
 21
66.1098
 31
0.0
  0
LINE
  8
0
 62
     0
 10
271.931
 20
66.1098
 30
0.0
 11
276.4
 21
66.1098
 31
0.0
  0
LINE
  8
0
 62
     0
 10
276.4
 20
66.1098
 30
0.0
 11
276.4
 21
64.5844
 31
0.0
  0
LINE
  8
0
 62
     0
 10
276.4
 20
64.5844
 30
0.0
 11
271.701
 21
64.5844
 31
0.0
  0
LINE
  8
0
 62
     0
 10
271.701
 20
64.5844
 30
0.0
 11
271.701
 21
50.5852
 31
0.0
  0
LINE
  8
0
 62
     0
 10
271.701
 20
50.5852
 30
0.0
 11
276.4
 21
50.5852
 31
0.0
  0
LINE
  8
0
 62
     0
 10
276.4
 20
50.5852
 30
0.0
 11
276.4
 21
49.0594
 31
0.0
  0
LINE
  8
0
 62
     0
 10
276.4
 20
49.0594
 30
0.0
 11
271.931
 21
49.0594
 31
0.0
  0
LINE
  8
0
 62
     0
 10
271.931
 20
49.0594
 30
0.0
 11
271.931
 21
47.3357
 31
0.0
  0
LINE
  8
0
 62
     0
 10
271.931
 20
47.3357
 30
0.0
 11
270.731
 21
47.3357
 31
0.0
  0
LINE
  8
0
 62
     0
 10
270.731
 20
47.3357
 30
0.0
 11
270.731
 21
44.0351
 31
0.0
  0
LINE
  8
0
 62
     0
 10
270.731
 20
44.0351
 30
0.0
 11
271.931
 21
44.0351
 31
0.0
  0
LINE
  8
0
 62
     0
 10
271.931
 20
44.0351
 30
0.0
 11
271.931
 21
42.31
 31
0.0
  0
LINE
  8
0
 62
     0
 10
271.931
 20
42.31
 30
0.0
 11
278.201
 21
42.31
 31
0.0
  0
LINE
  8
0
 62
     0
 10
278.201
 20
42.31
 30
0.0
 11
278.201
 21
41.486
 31
0.0
  0
LINE
  8
0
 62
     0
 10
278.201
 20
41.486
 30
0.0
 11
281
 21
41.486
 31
0.0
  0
LINE
  8
0
 62
     0
 10
281
 20
41.486
 30
0.0
 11
281
 21
42.31
 31
0.0
  0
LINE
  8
0
 62
     0
 10
281
 20
42.31
 30
0.0
 11
284.23
 21
42.31
 31
0.0
  0
LINE
  8
0
 62
     0
 10
284.23
 20
42.31
 30
0.0
 11
284.23
 21
49.0594
 31
0.0
  0
LINE
  8
0
 62
     0
 10
284.23
 20
49.0594
 30
0.0
 11
281
 21
49.0594
 31
0.0
  0
LINE
  8
0
 62
     0
 10
281
 20
49.0594
 30
0.0
 11
281
 21
50.5852
 31
0.0
  0
LINE
  8
0
 62
     0
 10
281
 20
50.5852
 30
0.0
 11
285.7
 21
50.5852
 31
0.0
  0
LINE
  8
0
 62
     0
 10
285.7
 20
50.5852
 30
0.0
 11
285.7
 21
64.5844
 31
0.0
  0
LINE
  8
0
 62
     0
 10
285.7
 20
64.5844
 30
0.0
 11
281
 21
64.5844
 31
0.0
  0
LINE
  8
0
 62
     0
 10
281
 20
64.5844
 30
0.0
 11
281
 21
66.1098
 31
0.0
  0
LINE
  8
0
 62
     0
 10
281
 20
66.1098
 30
0.0
 11
284.23
 21
66.1098
 31
0.0
  0
LINE
  8
0
 62
     0
 10
284.23
 20
66.1098
 30
0.0
 11
284.23
 21
72.8595
 31
0.0
  0
LINE
  8
0
 62
     0
 10
284.23
 20
72.8595
 30
0.0
 11
281
 21
72.8595
 31
0.0
  0
LINE
  8
0
 62
     0
 10
281
 20
72.8595
 30
0.0
 11
281
 21
73.685
 31
0.0
  0
LINE
  8
0
 62
     0
 10
281
 20
73.685
 30
0.0
 11
278.201
 21
73.685
 31
0.0
  0
LINE
  8
0
 62
     0
 10
9.76203
 20
74.1094
 30
0.0
 11
23.7629
 21
74.1094
 31
0.0
  0
LINE
  8
0
 62
     0
 10
23.7629
 20
74.1094
 30
0.0
 11
23.7629
 21
60.1102
 31
0.0
  0
LINE
  8
0
 62
     0
 10
23.7629
 20
60.1102
 30
0.0
 11
9.76203
 21
60.1102
 31
0.0
  0
LINE
  8
0
 62
     0
 10
9.76203
 20
60.1102
 30
0.0
 11
9.76203
 21
74.1094
 31
0.0
  0
LINE
  8
0
 62
     0
 10
35.9572
 20
74.1094
 30
0.0
 11
49.9565
 21
74.1094
 31
0.0
  0
LINE
  8
0
 62
     0
 10
49.9565
 20
74.1094
 30
0.0
 11
49.9565
 21
60.1102
 31
0.0
  0
LINE
  8
0
 62
     0
 10
49.9565
 20
60.1102
 30
0.0
 11
35.9572
 21
60.1102
 31
0.0
  0
LINE
  8
0
 62
     0
 10
35.9572
 20
60.1102
 30
0.0
 11
35.9572
 21
74.1094
 31
0.0
  0
LINE
  8
0
 62
     0
 10
55.0072
 20
74.1094
 30
0.0
 11
69.0065
 21
74.1094
 31
0.0
  0
LINE
  8
0
 62
     0
 10
69.0065
 20
74.1094
 30
0.0
 11
69.0065
 21
60.1102
 31
0.0
  0
LINE
  8
0
 62
     0
 10
69.0065
 20
60.1102
 30
0.0
 11
55.0072
 21
60.1102
 31
0.0
  0
LINE
  8
0
 62
     0
 10
55.0072
 20
60.1102
 30
0.0
 11
55.0072
 21
74.1094
 31
0.0
  0
LINE
  8
0
 62
     0
 10
74.0572
 20
74.1094
 30
0.0
 11
88.0565
 21
74.1094
 31
0.0
  0
LINE
  8
0
 62
     0
 10
88.0565
 20
74.1094
 30
0.0
 11
88.0565
 21
60.1102
 31
0.0
  0
LINE
  8
0
 62
     0
 10
88.0565
 20
60.1102
 30
0.0
 11
74.0572
 21
60.1102
 31
0.0
  0
LINE
  8
0
 62
     0
 10
74.0572
 20
60.1102
 30
0.0
 11
74.0572
 21
74.1094
 31
0.0
  0
LINE
  8
0
 62
     0
 10
93.1072
 20
74.1094
 30
0.0
 11
107.107
 21
74.1094
 31
0.0
  0
LINE
  8
0
 62
     0
 10
107.107
 20
74.1094
 30
0.0
 11
107.107
 21
60.1102
 31
0.0
  0
LINE
  8
0
 62
     0
 10
107.107
 20
60.1102
 30
0.0
 11
93.1072
 21
60.1102
 31
0.0
  0
LINE
  8
0
 62
     0
 10
93.1072
 20
60.1102
 30
0.0
 11
93.1072
 21
74.1094
 31
0.0
  0
LINE
  8
0
 62
     0
 10
112.157
 20
74.1094
 30
0.0
 11
126.157
 21
74.1094
 31
0.0
  0
LINE
  8
0
 62
     0
 10
126.157
 20
74.1094
 30
0.0
 11
126.157
 21
60.1102
 31
0.0
  0
LINE
  8
0
 62
     0
 10
126.157
 20
60.1102
 30
0.0
 11
112.157
 21
60.1102
 31
0.0
  0
LINE
  8
0
 62
     0
 10
112.157
 20
60.1102
 30
0.0
 11
112.157
 21
74.1094
 31
0.0
  0
LINE
  8
0
 62
     0
 10
131.207
 20
74.1094
 30
0.0
 11
145.207
 21
74.1094
 31
0.0
  0
LINE
  8
0
 62
     0
 10
145.207
 20
74.1094
 30
0.0
 11
145.207
 21
60.1102
 31
0.0
  0
LINE
  8
0
 62
     0
 10
145.207
 20
60.1102
 30
0.0
 11
131.207
 21
60.1102
 31
0.0
  0
LINE
  8
0
 62
     0
 10
131.207
 20
60.1102
 30
0.0
 11
131.207
 21
74.1094
 31
0.0
  0
LINE
  8
0
 62
     0
 10
150.257
 20
74.1094
 30
0.0
 11
164.257
 21
74.1094
 31
0.0
  0
LINE
  8
0
 62
     0
 10
164.257
 20
74.1094
 30
0.0
 11
164.257
 21
60.1102
 31
0.0
  0
LINE
  8
0
 62
     0
 10
164.257
 20
60.1102
 30
0.0
 11
150.257
 21
60.1102
 31
0.0
  0
LINE
  8
0
 62
     0
 10
150.257
 20
60.1102
 30
0.0
 11
150.257
 21
74.1094
 31
0.0
  0
LINE
  8
0
 62
     0
 10
169.307
 20
74.1094
 30
0.0
 11
183.307
 21
74.1094
 31
0.0
  0
LINE
  8
0
 62
     0
 10
183.307
 20
74.1094
 30
0.0
 11
183.307
 21
60.1102
 31
0.0
  0
LINE
  8
0
 62
     0
 10
183.307
 20
60.1102
 30
0.0
 11
169.307
 21
60.1102
 31
0.0
  0
LINE
  8
0
 62
     0
 10
169.307
 20
60.1102
 30
0.0
 11
169.307
 21
74.1094
 31
0.0
  0
LINE
  8
0
 62
     0
 10
188.357
 20
74.1094
 30
0.0
 11
202.357
 21
74.1094
 31
0.0
  0
LINE
  8
0
 62
     0
 10
202.357
 20
74.1094
 30
0.0
 11
202.357
 21
60.1102
 31
0.0
  0
LINE
  8
0
 62
     0
 10
202.357
 20
60.1102
 30
0.0
 11
188.357
 21
60.1102
 31
0.0
  0
LINE
  8
0
 62
     0
 10
188.357
 20
60.1102
 30
0.0
 11
188.357
 21
74.1094
 31
0.0
  0
LINE
  8
0
 62
     0
 10
207.407
 20
74.1094
 30
0.0
 11
221.407
 21
74.1094
 31
0.0
  0
LINE
  8
0
 62
     0
 10
221.407
 20
74.1094
 30
0.0
 11
221.407
 21
60.1102
 31
0.0
  0
LINE
  8
0
 62
     0
 10
221.407
 20
60.1102
 30
0.0
 11
207.407
 21
60.1102
 31
0.0
  0
LINE
  8
0
 62
     0
 10
207.407
 20
60.1102
 30
0.0
 11
207.407
 21
74.1094
 31
0.0
  0
LINE
  8
0
 62
     0
 10
226.457
 20
74.1094
 30
0.0
 11
240.457
 21
74.1094
 31
0.0
  0
LINE
  8
0
 62
     0
 10
240.457
 20
74.1094
 30
0.0
 11
240.457
 21
60.1102
 31
0.0
  0
LINE
  8
0
 62
     0
 10
240.457
 20
60.1102
 30
0.0
 11
226.457
 21
60.1102
 31
0.0
  0
LINE
  8
0
 62
     0
 10
226.457
 20
60.1102
 30
0.0
 11
226.457
 21
74.1094
 31
0.0
  0
LINE
  8
0
 62
     0
 10
245.507
 20
74.1094
 30
0.0
 11
259.507
 21
74.1094
 31
0.0
  0
LINE
  8
0
 62
     0
 10
259.507
 20
74.1094
 30
0.0
 11
259.507
 21
60.1102
 31
0.0
  0
LINE
  8
0
 62
     0
 10
259.507
 20
60.1102
 30
0.0
 11
245.507
 21
60.1102
 31
0.0
  0
LINE
  8
0
 62
     0
 10
245.507
 20
60.1102
 30
0.0
 11
245.507
 21
74.1094
 31
0.0
  0
LINE
  8
0
 62
     0
 10
307.42
 20
74.1094
 30
0.0
 11
321.419
 21
74.1094
 31
0.0
  0
LINE
  8
0
 62
     0
 10
321.419
 20
74.1094
 30
0.0
 11
321.419
 21
60.1102
 31
0.0
  0
LINE
  8
0
 62
     0
 10
321.419
 20
60.1102
 30
0.0
 11
307.42
 21
60.1102
 31
0.0
  0
LINE
  8
0
 62
     0
 10
307.42
 20
60.1102
 30
0.0
 11
307.42
 21
74.1094
 31
0.0
  0
LINE
  8
0
 62
     0
 10
326.47
 20
74.1094
 30
0.0
 11
340.469
 21
74.1094
 31
0.0
  0
LINE
  8
0
 62
     0
 10
340.469
 20
74.1094
 30
0.0
 11
340.469
 21
60.1102
 31
0.0
  0
LINE
  8
0
 62
     0
 10
340.469
 20
60.1102
 30
0.0
 11
326.47
 21
60.1102
 31
0.0
  0
LINE
  8
0
 62
     0
 10
326.47
 20
60.1102
 30
0.0
 11
326.47
 21
74.1094
 31
0.0
  0
LINE
  8
0
 62
     0
 10
345.52
 20
74.1094
 30
0.0
 11
359.519
 21
74.1094
 31
0.0
  0
LINE
  8
0
 62
     0
 10
359.519
 20
74.1094
 30
0.0
 11
359.519
 21
60.1102
 31
0.0
  0
LINE
  8
0
 62
     0
 10
359.519
 20
60.1102
 30
0.0
 11
345.52
 21
60.1102
 31
0.0
  0
LINE
  8
0
 62
     0
 10
345.52
 20
60.1102
 30
0.0
 11
345.52
 21
74.1094
 31
0.0
  0
LINE
  8
0
 62
     0
 10
2.61965
 20
93.1594
 30
0.0
 11
16.6192
 21
93.1594
 31
0.0
  0
LINE
  8
0
 62
     0
 10
16.6192
 20
93.1594
 30
0.0
 11
16.6192
 21
79.1602
 31
0.0
  0
LINE
  8
0
 62
     0
 10
16.6192
 20
79.1602
 30
0.0
 11
2.61965
 21
79.1602
 31
0.0
  0
LINE
  8
0
 62
     0
 10
2.61965
 20
79.1602
 30
0.0
 11
2.61965
 21
93.1594
 31
0.0
  0
LINE
  8
0
 62
     0
 10
21.6697
 20
93.1594
 30
0.0
 11
35.669
 21
93.1594
 31
0.0
  0
LINE
  8
0
 62
     0
 10
35.669
 20
93.1594
 30
0.0
 11
35.669
 21
79.1602
 31
0.0
  0
LINE
  8
0
 62
     0
 10
35.669
 20
79.1602
 30
0.0
 11
21.6697
 21
79.1602
 31
0.0
  0
LINE
  8
0
 62
     0
 10
21.6697
 20
79.1602
 30
0.0
 11
21.6697
 21
93.1594
 31
0.0
  0
LINE
  8
0
 62
     0
 10
40.7197
 20
93.1594
 30
0.0
 11
54.719
 21
93.1594
 31
0.0
  0
LINE
  8
0
 62
     0
 10
54.719
 20
93.1594
 30
0.0
 11
54.719
 21
79.1602
 31
0.0
  0
LINE
  8
0
 62
     0
 10
54.719
 20
79.1602
 30
0.0
 11
40.7197
 21
79.1602
 31
0.0
  0
LINE
  8
0
 62
     0
 10
40.7197
 20
79.1602
 30
0.0
 11
40.7197
 21
93.1594
 31
0.0
  0
LINE
  8
0
 62
     0
 10
59.7697
 20
93.1594
 30
0.0
 11
73.769
 21
93.1594
 31
0.0
  0
LINE
  8
0
 62
     0
 10
73.769
 20
93.1594
 30
0.0
 11
73.769
 21
79.1602
 31
0.0
  0
LINE
  8
0
 62
     0
 10
73.769
 20
79.1602
 30
0.0
 11
59.7697
 21
79.1602
 31
0.0
  0
LINE
  8
0
 62
     0
 10
59.7697
 20
79.1602
 30
0.0
 11
59.7697
 21
93.1594
 31
0.0
  0
LINE
  8
0
 62
     0
 10
78.8197
 20
93.1594
 30
0.0
 11
92.819
 21
93.1594
 31
0.0
  0
LINE
  8
0
 62
     0
 10
92.819
 20
93.1594
 30
0.0
 11
92.819
 21
79.1602
 31
0.0
  0
LINE
  8
0
 62
     0
 10
92.819
 20
79.1602
 30
0.0
 11
78.8197
 21
79.1602
 31
0.0
  0
LINE
  8
0
 62
     0
 10
78.8197
 20
79.1602
 30
0.0
 11
78.8197
 21
93.1594
 31
0.0
  0
LINE
  8
0
 62
     0
 10
97.8683
 20
93.1594
 30
0.0
 11
111.869
 21
93.1594
 31
0.0
  0
LINE
  8
0
 62
     0
 10
111.869
 20
93.1594
 30
0.0
 11
111.869
 21
79.1602
 31
0.0
  0
LINE
  8
0
 62
     0
 10
111.869
 20
79.1602
 30
0.0
 11
97.8683
 21
79.1602
 31
0.0
  0
LINE
  8
0
 62
     0
 10
97.8683
 20
79.1602
 30
0.0
 11
97.8683
 21
93.1594
 31
0.0
  0
LINE
  8
0
 62
     0
 10
116.918
 20
93.1594
 30
0.0
 11
130.919
 21
93.1594
 31
0.0
  0
LINE
  8
0
 62
     0
 10
130.919
 20
93.1594
 30
0.0
 11
130.919
 21
79.1602
 31
0.0
  0
LINE
  8
0
 62
     0
 10
130.919
 20
79.1602
 30
0.0
 11
116.918
 21
79.1602
 31
0.0
  0
LINE
  8
0
 62
     0
 10
116.918
 20
79.1602
 30
0.0
 11
116.918
 21
93.1594
 31
0.0
  0
LINE
  8
0
 62
     0
 10
135.97
 20
93.1594
 30
0.0
 11
149.969
 21
93.1594
 31
0.0
  0
LINE
  8
0
 62
     0
 10
149.969
 20
93.1594
 30
0.0
 11
149.969
 21
79.1602
 31
0.0
  0
LINE
  8
0
 62
     0
 10
149.969
 20
79.1602
 30
0.0
 11
135.97
 21
79.1602
 31
0.0
  0
LINE
  8
0
 62
     0
 10
135.97
 20
79.1602
 30
0.0
 11
135.97
 21
93.1594
 31
0.0
  0
LINE
  8
0
 62
     0
 10
155.02
 20
93.1594
 30
0.0
 11
169.019
 21
93.1594
 31
0.0
  0
LINE
  8
0
 62
     0
 10
169.019
 20
93.1594
 30
0.0
 11
169.019
 21
79.1602
 31
0.0
  0
LINE
  8
0
 62
     0
 10
169.019
 20
79.1602
 30
0.0
 11
155.02
 21
79.1602
 31
0.0
  0
LINE
  8
0
 62
     0
 10
155.02
 20
79.1602
 30
0.0
 11
155.02
 21
93.1594
 31
0.0
  0
LINE
  8
0
 62
     0
 10
174.07
 20
93.1594
 30
0.0
 11
188.069
 21
93.1594
 31
0.0
  0
LINE
  8
0
 62
     0
 10
188.069
 20
93.1594
 30
0.0
 11
188.069
 21
79.1602
 31
0.0
  0
LINE
  8
0
 62
     0
 10
188.069
 20
79.1602
 30
0.0
 11
174.07
 21
79.1602
 31
0.0
  0
LINE
  8
0
 62
     0
 10
174.07
 20
79.1602
 30
0.0
 11
174.07
 21
93.1594
 31
0.0
  0
LINE
  8
0
 62
     0
 10
193.12
 20
93.1594
 30
0.0
 11
207.119
 21
93.1594
 31
0.0
  0
LINE
  8
0
 62
     0
 10
207.119
 20
93.1594
 30
0.0
 11
207.119
 21
79.1602
 31
0.0
  0
LINE
  8
0
 62
     0
 10
207.119
 20
79.1602
 30
0.0
 11
193.12
 21
79.1602
 31
0.0
  0
LINE
  8
0
 62
     0
 10
193.12
 20
79.1602
 30
0.0
 11
193.12
 21
93.1594
 31
0.0
  0
LINE
  8
0
 62
     0
 10
212.17
 20
93.1594
 30
0.0
 11
226.169
 21
93.1594
 31
0.0
  0
LINE
  8
0
 62
     0
 10
226.169
 20
93.1594
 30
0.0
 11
226.169
 21
79.1602
 31
0.0
  0
LINE
  8
0
 62
     0
 10
226.169
 20
79.1602
 30
0.0
 11
212.17
 21
79.1602
 31
0.0
  0
LINE
  8
0
 62
     0
 10
212.17
 20
79.1602
 30
0.0
 11
212.17
 21
93.1594
 31
0.0
  0
LINE
  8
0
 62
     0
 10
231.22
 20
93.1594
 30
0.0
 11
245.219
 21
93.1594
 31
0.0
  0
LINE
  8
0
 62
     0
 10
245.219
 20
93.1594
 30
0.0
 11
245.219
 21
79.1602
 31
0.0
  0
LINE
  8
0
 62
     0
 10
245.219
 20
79.1602
 30
0.0
 11
231.22
 21
79.1602
 31
0.0
  0
LINE
  8
0
 62
     0
 10
231.22
 20
79.1602
 30
0.0
 11
231.22
 21
93.1594
 31
0.0
  0
LINE
  8
0
 62
     0
 10
250.27
 20
93.1594
 30
0.0
 11
264.269
 21
93.1594
 31
0.0
  0
LINE
  8
0
 62
     0
 10
264.269
 20
93.1594
 30
0.0
 11
264.269
 21
79.1602
 31
0.0
  0
LINE
  8
0
 62
     0
 10
264.269
 20
79.1602
 30
0.0
 11
250.27
 21
79.1602
 31
0.0
  0
LINE
  8
0
 62
     0
 10
250.27
 20
79.1602
 30
0.0
 11
250.27
 21
93.1594
 31
0.0
  0
LINE
  8
0
 62
     0
 10
271.701
 20
93.1594
 30
0.0
 11
285.7
 21
93.1594
 31
0.0
  0
LINE
  8
0
 62
     0
 10
285.7
 20
93.1594
 30
0.0
 11
285.7
 21
79.1602
 31
0.0
  0
LINE
  8
0
 62
     0
 10
285.7
 20
79.1602
 30
0.0
 11
271.701
 21
79.1602
 31
0.0
  0
LINE
  8
0
 62
     0
 10
271.701
 20
79.1602
 30
0.0
 11
271.701
 21
93.1594
 31
0.0
  0
LINE
  8
0
 62
     0
 10
307.42
 20
93.1594
 30
0.0
 11
321.419
 21
93.1594
 31
0.0
  0
LINE
  8
0
 62
     0
 10
321.419
 20
93.1594
 30
0.0
 11
321.419
 21
79.1602
 31
0.0
  0
LINE
  8
0
 62
     0
 10
321.419
 20
79.1602
 30
0.0
 11
307.42
 21
79.1602
 31
0.0
  0
LINE
  8
0
 62
     0
 10
307.42
 20
79.1602
 30
0.0
 11
307.42
 21
93.1594
 31
0.0
  0
LINE
  8
0
 62
     0
 10
326.47
 20
93.1594
 30
0.0
 11
340.469
 21
93.1594
 31
0.0
  0
LINE
  8
0
 62
     0
 10
340.469
 20
93.1594
 30
0.0
 11
340.469
 21
79.1602
 31
0.0
  0
LINE
  8
0
 62
     0
 10
340.469
 20
79.1602
 30
0.0
 11
326.47
 21
79.1602
 31
0.0
  0
LINE
  8
0
 62
     0
 10
326.47
 20
79.1602
 30
0.0
 11
326.47
 21
93.1594
 31
0.0
  0
LINE
  8
0
 62
     0
 10
345.52
 20
93.1594
 30
0.0
 11
359.519
 21
93.1594
 31
0.0
  0
LINE
  8
0
 62
     0
 10
359.519
 20
93.1594
 30
0.0
 11
359.519
 21
79.1602
 31
0.0
  0
LINE
  8
0
 62
     0
 10
359.519
 20
79.1602
 30
0.0
 11
345.52
 21
79.1602
 31
0.0
  0
LINE
  8
0
 62
     0
 10
345.52
 20
79.1602
 30
0.0
 11
345.52
 21
93.1594
 31
0.0
  0
LINE
  8
0
 62
     0
 10
326.47
 20
116.972
 30
0.0
 11
340.469
 21
116.972
 31
0.0
  0
LINE
  8
0
 62
     0
 10
340.469
 20
116.972
 30
0.0
 11
340.469
 21
102.973
 31
0.0
  0
LINE
  8
0
 62
     0
 10
340.469
 20
102.973
 30
0.0
 11
326.47
 21
102.973
 31
0.0
  0
LINE
  8
0
 62
     0
 10
326.47
 20
102.973
 30
0.0
 11
326.47
 21
116.972
 31
0.0
  0
LINE
  8
0
 62
     0
 10
307.42
 20
136.022
 30
0.0
 11
321.419
 21
136.022
 31
0.0
  0
LINE
  8
0
 62
     0
 10
321.419
 20
136.022
 30
0.0
 11
321.419
 21
122.023
 31
0.0
  0
LINE
  8
0
 62
     0
 10
321.419
 20
122.023
 30
0.0
 11
307.42
 21
122.023
 31
0.0
  0
LINE
  8
0
 62
     0
 10
307.42
 20
122.023
 30
0.0
 11
307.42
 21
136.022
 31
0.0
  0
LINE
  8
0
 62
     0
 10
326.47
 20
136.022
 30
0.0
 11
340.469
 21
136.022
 31
0.0
  0
LINE
  8
0
 62
     0
 10
340.469
 20
136.022
 30
0.0
 11
340.469
 21
122.023
 31
0.0
  0
LINE
  8
0
 62
     0
 10
340.469
 20
122.023
 30
0.0
 11
326.47
 21
122.023
 31
0.0
  0
LINE
  8
0
 62
     0
 10
326.47
 20
122.023
 30
0.0
 11
326.47
 21
136.022
 31
0.0
  0
LINE
  8
0
 62
     0
 10
345.52
 20
136.022
 30
0.0
 11
359.519
 21
136.022
 31
0.0
  0
LINE
  8
0
 62
     0
 10
359.519
 20
136.022
 30
0.0
 11
359.519
 21
122.023
 31
0.0
  0
LINE
  8
0
 62
     0
 10
359.519
 20
122.023
 30
0.0
 11
345.52
 21
122.023
 31
0.0
  0
LINE
  8
0
 62
     0
 10
345.52
 20
122.023
 30
0.0
 11
345.52
 21
136.022
 31
0.0
  0
LINE
  8
0
 62
     0
 10
326.47
 20
155.072
 30
0.0
 11
340.469
 21
155.072
 31
0.0
  0
LINE
  8
0
 62
     0
 10
340.469
 20
155.072
 30
0.0
 11
340.469
 21
141.073
 31
0.0
  0
LINE
  8
0
 62
     0
 10
340.469
 20
141.073
 30
0.0
 11
326.47
 21
141.073
 31
0.0
  0
LINE
  8
0
 62
     0
 10
326.47
 20
141.073
 30
0.0
 11
326.47
 21
155.072
 31
0.0
  0
ENDSEC
  0
EOF
